<svg xmlns="http://www.w3.org/2000/svg" viewBox="0 0 949.17 263.22"><title>logo</title><path d="M1500.46,433.07c-42.26,39.63-91.95,6.31-134.73-8.46a105.65,105.65,0,0,0,5.93-8.76,123.41,123.41,0,0,0,12.84-29,100.42,100.42,0,0,0,4.24-28.13c0-9.49-2.2-18.49-6.54-28.65a43.23,43.23,0,0,0-14.35-17.5c-6.07-4.44-12.21-6.6-17.93-8.26-6.26-1.82-15.69-2.65-23.45-2-8.34.64-14.9,1.27-23.36,3.5-16.17,4.29-31.42,11.69-42.93,20.84a68.62,68.62,0,0,0-19.8,24.9,41.39,41.39,0,0,0-4.22,17.44c0,8,2.7,15.32,7.31,20.09,2.23,2.31,8.44,7.12,15.59,6.58,5.6-.44,8.6-3.71,8.6-7.21a6.3,6.3,0,0,0-.23-1.69c-1.07-3.95-4.84-5-7.86-5.77-6.19-1.67-9.15-6.42-9.15-12.87,0-6.24,3.09-13.73,8-19.74,9.67-11.83,22.34-20.18,37.58-25.54a115,115,0,0,1,29.22-6.32,60.38,60.38,0,0,1,16.77,1.1,44.21,44.21,0,0,1,17.87,7.51c4.09,3,8.23,7.28,11.64,17.57a55.88,55.88,0,0,1,2.7,17.57c0,8.14-1.92,17.23-5.86,27.76a116.86,116.86,0,0,1-17.74,32c-16.23-4.36-35.37-7.72-52.79-7.77,1.34-3.65,2.78-7.32,4.37-11,3.95-9.12,7-15.63,11.41-24.4,6.92-13.83,11.62-22.24,16.92-28.8,1.07-1.33,6.44-7.54,7.86-9.41,0.88-1.13,2.89-4.08,2.89-7.09a5.88,5.88,0,0,0-6.65-5.83c-4.87.37-8.38,4.84-14.72,13.3a172.27,172.27,0,0,0-15.73,25.88c-3.72,7.4-8.61,17.16-13.2,27.1-3.32,7.22-6.21,14.53-8.61,21.21l-1.82.24a57.71,57.71,0,0,0-24.59,9.84c-5.76,4.2-11.81,10.41-12.53,17.69-0.82,8.35,4.27,15.64,10.58,20.09,4.84,3.4,11.15,5.63,18.74,6.63a65.16,65.16,0,0,0,15,.19,112.09,112.09,0,0,0,26.83-5.07,103.69,103.69,0,0,0,24.61-12.61A120.76,120.76,0,0,0,1359,432.74c9.44,3.13,18.77,6.55,28,9.79,41.48,14.51,92.36,31.57,131.56-5.19C1523.39,432.83,1505.24,428.6,1500.46,433.07Zm-194.77,17.4a85.28,85.28,0,0,1-17.33,3c-7.49.59-16,.49-22.7-2.71-10.42-5-5.47-17.58,2.75-23.35a35,35,0,0,1,10.85-5.1c-0.16.51-.33,1-0.48,1.51-1.77,5.64-4.56,13.18-4.56,18,0,4.25,2.43,7.2,6.84,6.85,3.09-.23,5.44-2.41,7-6.5,1-2.7,1.84-5.52,2.64-8.27,0.4-1.39.81-2.82,1.24-4.2,0.91-2.91,1.87-5.9,2.88-8.93,6.77,0.2,13.57,1.2,20,1.83a171.66,171.66,0,0,1,28.47,5.45A90.28,90.28,0,0,1,1305.69,450.48Z" transform="translate(-1226.14 -205)" fill="#fbbe62"/><path d="M1390.78,407.42a24,24,0,0,1-1.74-9.2c0-9.7,5-19.93,9.84-28.31,6.4-11,15.6-21.91,27.06-27.79a26.92,26.92,0,0,1,9.68-2.58c7.31-.57,13.45,4,13.45,11.8,0,5.22-2.65,10.79-5.54,15.07-3.62,5.36-8.67,9.6-13.8,13.44a59.56,59.56,0,0,1-8.53,5.51,79.64,79.64,0,0,1-9.41,3.67c-2.59.93-6.59,2-8.57,3.84a5.9,5.9,0,0,0-1.43,4.36c0,7.71,5.64,9.43,11.12,9,7.82-.61,16.3-4.62,23.13-9.43,5.35-3.78,9.72-8.47,13.9-13a93.29,93.29,0,0,0,11.83-16.4c1.48-2.52,2.92-5.75,5.53-7.33a6,6,0,0,1,2.72-.88,5.41,5.41,0,0,1,4.5,1.71,4.3,4.3,0,0,1,1.06,2.91c0,1.72-.91,3.24-1.7,4.84-1.52,3.11-3.81,6.58-5.63,9.54a103.37,103.37,0,0,1-11.84,16.12c-9.35,10.18-20.95,18.4-33.56,22.22a47.76,47.76,0,0,1-10,1.92C1403.57,419.17,1394.58,416.64,1390.78,407.42ZM1420.15,373a42.1,42.1,0,0,0,7.33-6c1.4-1.4,9.18-9.23,9.18-12.94,0-1.94-1.34-2-2.43-1.9-2.56.2-6,2-8.2,3.8a63.11,63.11,0,0,0-7.32,6.51,66.89,66.89,0,0,0-6.24,8.09c-0.6.91-2.65,3.74-2.65,5.38a1.09,1.09,0,0,0,1.11,1.25C1414.09,377,1417.51,374.66,1420.15,373Z" transform="translate(-1226.14 -205)" fill="#fbbe62"/><path d="M1476.12,411.13a33.83,33.83,0,0,1-9.79-.61c-2.54-.56-5.4-1.58-6.74-3.9a5.38,5.38,0,0,1-.72-2.75,5.68,5.68,0,0,1,5.61-5.9,13.39,13.39,0,0,1,5.16.86,12.71,12.71,0,0,0,4.94.77,8.58,8.58,0,0,0,3.83-1.26c5.09-3.06,7.8-9.41,7.8-15,0-6.48-1.08-12.19-2-18.59-0.22-1.6-.4-3.22-0.63-4.83-0.16-1.13-.23-3.09-1.17-3.87a1.22,1.22,0,0,0-.9-0.32c-0.93.07-1.88,1.33-2.86,3.14-0.8,1.46-1.61,3.3-2.46,5.12-1.31,2.59-2.54,6.11-4.4,7.25a5.58,5.58,0,0,1-2.28.63c-2.58.19-6.47-2.07-6.47-4.79,0-2.25,1.58-4.93,2.76-7.12,1.62-3,2.54-5.34,4.26-8.45,3.21-5.83,5.45-10.33,8.71-16.15,2.15-3.83,5.13-9.67,9.7-10a6.5,6.5,0,0,1,3.22.62,6.93,6.93,0,0,1,4.19,6.53c0,3.08-1.78,5.8-1.78,9.28a47,47,0,0,0,1,9.35c1.26,6.2,2.2,12.69,2.88,19a80.49,80.49,0,0,1,.47,8.56,48.89,48.89,0,0,1-.32,7.69,10.08,10.08,0,0,0-.13,1.45c0,1.06.25,2.08,1.42,2s4-1.84,10-7.07c5.24-4.6,9.32-10.18,13.07-16,1.21-1.89,3-5,4.39-7.66s3-3.25,4.36-3.35a6.79,6.79,0,0,1,3.86.8,5.68,5.68,0,0,1,2.74,4.62c0,2.41-4.13,8.28-5.92,11.28a79.38,79.38,0,0,1-12.71,16.19,92.78,92.78,0,0,1-17.9,13.91,72.08,72.08,0,0,1-16.89,7,43.28,43.28,0,0,1-8.39,1.51h0Z" transform="translate(-1226.14 -205)" fill="#fbbe62"/><path d="M1518,397.66a23.83,23.83,0,0,1-1.75-9.18c0-9.71,5-19.94,9.85-28.33,6.4-11,15.6-21.9,27.06-27.79a26.89,26.89,0,0,1,9.68-2.58c7.31-.55,13.46,4,13.46,11.81,0,5.21-2.65,10.77-5.54,15.07-3.62,5.36-8.67,9.6-13.79,13.44a59.12,59.12,0,0,1-8.54,5.5,79.42,79.42,0,0,1-9.41,3.69c-2.59.91-6.59,2-8.57,3.84a5.88,5.88,0,0,0-1.43,4.34c0,7.71,5.64,9.45,11.12,9,7.81-.61,16.3-4.63,23.13-9.44,5.35-3.76,9.73-8.45,13.9-13A93.63,93.63,0,0,0,1589,357.64c1.47-2.52,2.92-5.74,5.53-7.33a6,6,0,0,1,2.72-.88,5.37,5.37,0,0,1,4.5,1.72,4.28,4.28,0,0,1,1.06,2.92c0,1.71-.92,3.22-1.69,4.83-1.52,3.12-3.81,6.58-5.63,9.54a104,104,0,0,1-11.84,16.12c-9.36,10.19-20.94,18.4-33.57,22.21a47.48,47.48,0,0,1-10,1.92C1530.82,409.4,1521.82,406.88,1518,397.66Zm29.37-34.39a41.89,41.89,0,0,0,7.33-6c1.4-1.4,9.19-9.24,9.19-12.94,0-1.95-1.35-2-2.43-1.89-2.55.19-6,2-8.19,3.8a63.12,63.12,0,0,0-7.31,6.5,66.29,66.29,0,0,0-6.25,8.11c-0.59.89-2.65,3.72-2.65,5.37a1.1,1.1,0,0,0,1.12,1.25C1541.33,367.21,1544.75,364.88,1547.39,363.26Z" transform="translate(-1226.14 -205)" fill="#fbbe62"/><path d="M1572.43,398.51c0-2,.93-4.06,1.69-5.89,0.9-2.21,1.87-4.42,2.85-6.6,1.83-4.09,3.34-8.05,5.2-12.13,3.76-8.28,6.72-15.11,10-23.58,1.56-4.06,2.87-8.16,4.35-12.22,1.3-3.53,2.33-8,4.81-11a7.16,7.16,0,0,1,4.78-2.55,5.19,5.19,0,0,1,5.79,5.49c0,2.89-2.13,7.19-2.13,9.39a0.86,0.86,0,0,0,.94,1,3,3,0,0,0,1.62-.79c1.61-1.35,3.1-2.9,4.61-4.36,3-2.89,5.66-5.7,9.31-7.71a26,26,0,0,1,10.17-3.12c4.36-.35,8.53.8,10.84,4.6a14.91,14.91,0,0,1,2,7.86c0,5-1.92,10.38-4.1,14.82-3.73,7.6-8.8,15.27-10.35,23.59a9,9,0,0,0-.15,1.68c0,2.66,1.28,4.74,4,4.54,3.4-.26,8.7-4.65,11.46-7.54,6-6.25,10-14.09,14.18-21.55,0.85-1.53,1.79-3.21,3-5.38a6.09,6.09,0,0,1,4.87-3c2.7-.31,5.36,2.35,5.36,5.42a9.57,9.57,0,0,1-1.08,4.18c-1.16,2.64-3.28,6.28-4.53,8.55a124.15,124.15,0,0,1-7.52,11.84c-5.2,7.18-11.33,13.88-18.9,17.64a22.27,22.27,0,0,1-8.26,2.23c-4.76.38-9.38-1-12.42-4.84a16.41,16.41,0,0,1-3.07-10.27,32.32,32.32,0,0,1,2.69-12.4c1.79-4.13,3.87-8.3,5.92-12.32,2-3.83,3.79-7.55,5.36-11.53a9.46,9.46,0,0,0,.82-3.19c0-2.14-1.3-2.67-2.74-2.57a7.43,7.43,0,0,0-2.28.6c-3.68,1.58-6.78,4.48-9.84,7.06a122.47,122.47,0,0,0-16.79,17.86,116.42,116.42,0,0,0-13.06,21c-1.84,3.7-3.53,7.31-5.42,11a42.39,42.39,0,0,1-3.43,6.21,7,7,0,0,1-5,3.08A5,5,0,0,1,1572.43,398.51Z" transform="translate(-1226.14 -205)" fill="#fbbe62"/><path d="M1678.69,382.56c0-7.22,4.49-15.9,8.52-22.27q2.87-4.5,5.71-9c1.25-2,4.08-5,4.08-7.54,0-3.24-5-4.94-7.36-6.09a5.89,5.89,0,0,0-3-.73c-1.43.11-2.6,1-3.62,3-1.5,2.8-2.65,5.78-4.09,8.61-1.31,2.58-2.54,6.1-4.41,7.25a5.64,5.64,0,0,1-2.28.62c-2.58.21-6.46-2.06-6.46-4.79,0-2.25,1.58-4.93,2.76-7.11,1.62-3,3.34-6.56,4.79-9.64a14.49,14.49,0,0,0,1.56-4.75c0-.17,0-0.33,0-0.5a15.47,15.47,0,0,0-1-4.38,13.09,13.09,0,0,1-.52-3.7,16.48,16.48,0,0,1,6.4-12.8,11.88,11.88,0,0,1,6.07-2.4c4.79-.37,6.44,2.82,6.44,6.35a25.71,25.71,0,0,1-.77,5.41,24.22,24.22,0,0,0-1,4.82c0,3.33,4.13,4.3,6.43,5.64,5.5,3.22,12.79,6.57,12.79,14.25,0,5.94-4.76,11.4-8,16.29-3.59,5.48-8.38,12.44-10.13,18.77a7.18,7.18,0,0,0-.3,2c0,2.08,1.16,3.49,3.46,3.3,5.41-.42,14.06-9.95,16.22-12.37a110,110,0,0,0,12.28-17.83c1.74-3.06,3.66-6.51,5.26-9.47a4.78,4.78,0,0,1,4.41-2.84,5.8,5.8,0,0,1,2.76.49,4.92,4.92,0,0,1,3.27,4.45,8.71,8.71,0,0,1-.62,3.09,97.89,97.89,0,0,1-4.74,9.12c-6.29,11-15.57,23.78-25.94,31.49-4.22,3.15-9.3,5.84-14.39,6.23C1684.86,396.1,1678.69,390.2,1678.69,382.56Z" transform="translate(-1226.14 -205)" fill="#fbbe62"/><path d="M1740.07,394.7c-6.79.51-13.18-1.72-16.75-8.06a32,32,0,0,1-4-15.19,48.46,48.46,0,0,1,2.26-13.4,64.88,64.88,0,0,1,14.82-25.53,44.35,44.35,0,0,1,15-10.05,21.94,21.94,0,0,0,6.69-4.1,17.11,17.11,0,0,1,9.92-4.06c11.14-.86,15.33,11.57,15.33,21.5a65.29,65.29,0,0,1-1.65,13.83,20.48,20.48,0,0,0-.81,3.75c0,1.18.4,1.86,1.65,1.77,1.9-.14,5.4-2.08,6.66-3,4.39-3.26,8.4-6.7,11.18-11.09,1.19-1.89,1.88-3.19,2.61-4.47,0.57-1,1.89-2.22,4.6-2.43,2.91-.23,5.78,1.73,5.78,4.68,0,2.7-2.08,5.79-3.63,8.08a57.35,57.35,0,0,1-11.7,12.46,67.21,67.21,0,0,1-12.64,7.55,39.32,39.32,0,0,1-7.86,2.74,10.82,10.82,0,0,0-5.57,3.06c-1.74,1.77-3.08,3.9-4.65,5.81a52.66,52.66,0,0,1-5.45,5.72c-6.61,6-14.73,9.91-21.78,10.46h0Zm8.07-14.23a35.28,35.28,0,0,0,8.45-6.79c1.59-1.68,3.78-3.43,3.78-5.1,0-1-1.26-1.84-2.34-2.81a25.47,25.47,0,0,1-7.3-9.49c-1.33-3.23-2-6.5-2.11-13.86,0-1,.12-3-1.39-2.75-1.67.23-3.84,3-4.74,4.31a60.19,60.19,0,0,0-6.33,10.27c-2.26,5.21-4.55,10.79-4.55,16.37a21.49,21.49,0,0,0,.39,4.11c0.65,3.38,2.18,6.5,5.61,7.59a9.51,9.51,0,0,0,3.72.38A17.14,17.14,0,0,0,1748.14,380.48Zm21.94-31.64a60.75,60.75,0,0,0,1.44-8.8c0.08-.92.19-2.42,0.19-4.08,0-4.28-.73-9.67-4.55-9.26-2.56.29-4,3.63-4.77,5.71a38.81,38.81,0,0,0-2.07,11.22,18.49,18.49,0,0,0,1,6.19c0.62,1.74,2.16,6.76,4.73,6.55C1768.16,356.21,1769.41,351.6,1770.08,348.83Z" transform="translate(-1226.14 -205)" fill="#fbbe62"/><path d="M1805.51,382.26c-6.17-5.57-8-15.18-7.82-23.41,0.13-7.2,1.58-14.4,3.21-21.54a199.83,199.83,0,0,1,7-24c2.92-7.67,5.54-15.48,9.31-22.85,1.87-3.65,3.61-7.21,5.43-10.89,1.95-3.93,5.16-8.84,7.46-12.57,5.06-8.23,14.68-22.67,25.35-23.5a11.71,11.71,0,0,1,8.65,3.07c2.64,2.24,3.66,5.9,3.65,9.53,0,7.53-3.18,16.1-6.16,23.62s-7.18,15.18-11.1,22.38c-7.74,14.2-17.92,26.94-28.37,39.22-2.6,3-5.26,6-8.08,8.78s-4.57,5.54-4.63,9.81c0,6.91,1.32,15.72,9.55,15.08,7.27-.55,14.32-8.2,18.78-13.57a123.31,123.31,0,0,0,12.94-19.49c1.74-3.09,2.72-5.65,4.64-9a5.45,5.45,0,0,1,4.13-2.59c3.41-.27,6.13,2.13,6.13,5.13,0,2.49-1.62,5.14-2.62,7.33a123.15,123.15,0,0,1-5.89,11c-8.31,14.2-21.58,31.67-37.68,32.9C1813.4,387.16,1809.88,386.21,1805.51,382.26Zm12.78-53c1-1.33,2-2.73,3.06-4.09,7-9.31,13.91-18.68,19.64-28.81a190.67,190.67,0,0,0,9.14-18.12c2.43-5.74,5-11,5.07-17.57,0-1.34-.42-2.63-1.7-2.53a3.85,3.85,0,0,0-2,1,38.29,38.29,0,0,0-5.32,6c-3.49,4.61-6.5,9.67-9.62,14.52a167.63,167.63,0,0,0-15.42,31.72c-1.9,5-4.13,9.77-5.57,14.9-0.7,2.37-1.23,3.25-1.19,4.53,0,0.75.32,1.26,1.13,1.14S1817.75,330,1818.29,329.29Z" transform="translate(-1226.14 -205)" fill="#fbbe62"/><path d="M1849.12,382c-4.29-3-5.42-8.37-5.42-13.6,0-14.08,6.16-29.13,15.28-40.66a67,67,0,0,1,16.93-15.33c6.51-4,11-5.6,18.3-6.16,3.4-.27,6.5.76,9.65,0.51,2.55-.19,4.56-1.9,6.82-2.07a4.77,4.77,0,0,1,5.16,4.94c0,3.62-2.63,8.21-3.85,11.05-2.54,5.84-5.62,11.66-7.26,17.78-1.23,4.58-2.92,10.1-2.92,15.1,0,5.91,1.89,7.72,4.32,7.53,3.12-.24,7.17-3.76,9.34-6.09a76.84,76.84,0,0,0,11.15-16.4c1.3-2.46,2.87-5.66,4.39-8.85s3.93-5.46,7.34-5.72c3.06-.24,4.48,2,4.48,4.76a12.86,12.86,0,0,1-1.17,4.56,180.22,180.22,0,0,1-12.12,22.06,53.56,53.56,0,0,1-9.7,11c-4.15,3.58-8.93,6.71-14.15,7.11-8.59.65-11.62-3.08-15.28-9.58-0.58-1-.86-1.39-1.65-1.33-1.63.12-5.22,5.18-7.1,7.34-4,4.6-10.88,10.68-16.54,12.81a23.19,23.19,0,0,1-6.47,1.47A14.45,14.45,0,0,1,1849.12,382Zm16.72-12.71c4.85-3.48,8.52-8.39,12-13.14,3.95-5.35,7.87-10.74,11.34-16.42,3.17-5.2,8.69-12.11,8.69-18,0-3.1-2.18-3.91-4.88-3.71a26,26,0,0,0-8.39,2.62,44.84,44.84,0,0,0-14.44,11.62c-7.51,9.1-14.64,22.58-14.64,33.5,0,3.3,1.49,6.17,4.59,5.93A11.92,11.92,0,0,0,1865.84,369.25Z" transform="translate(-1226.14 -205)" fill="#fbbe62"/><path d="M1921.31,360.86c0-17.81,10.33-36.68,23.52-49.36,6.47-6.22,15.35-10.79,24.64-11.51,1.4-.11,2.8,0,4.19-0.12,2.84-.21,3.94-2.39,4.72-4.71a120.45,120.45,0,0,1,5.06-12.88c2-4.28,3.53-8.63,5.51-12.93,1-2.06,1.8-4,2.73-6.11s2.18-4.12,3.23-6.08a99.22,99.22,0,0,1,7.65-11.5,47.06,47.06,0,0,1,9.1-9.66c3.12-2.42,6.79-4.66,10.68-5,4.42-.34,7.3,2.18,8.71,6a16.11,16.11,0,0,1,.91,5.54c0,6.45-3.07,13.5-5.3,19.29-3.38,8.83-7.8,16.51-12.07,25S2005,303.32,2000,311.44a253.44,253.44,0,0,1-16.42,23,15.9,15.9,0,0,0-2.56,7.75c0,5.63,2.39,12.24,7.21,11.88,4-.29,6.36-1.76,9.47-4.29a67.27,67.27,0,0,0,9.42-10.06,84,84,0,0,0,7.69-11c1.08-1.89,2.58-4.82,3.43-6.66s1.27-2.87,3.29-3.92a5.42,5.42,0,0,1,2.06-.59,5.09,5.09,0,0,1,5.76,5.15,8.48,8.48,0,0,1-1.3,4.58c-1.26,2.15-2.68,5.23-3.92,7.21-2.72,4.33-4.75,7.86-7.62,11.71-5.43,7.23-11.83,13.57-19.37,17.67a26.58,26.58,0,0,1-10.56,3.13c-5,.39-10.45-3.17-13.8-8.86-0.73-1.24-2-2.77-3.23-2.67-1.92.15-3.87,3-5.36,4.6s-3.2,3.4-4.88,5c-5.76,5.59-13.31,11.91-21.44,12.54C1927.31,378.42,1921.31,369.81,1921.31,360.86Zm29.05-2.32a107.59,107.59,0,0,0,9.45-10.17c1.61-1.88,3.21-3.75,4.77-5.65s3.11-3.51,3.84-5.7a12.43,12.43,0,0,0,.62-3c0.11-1.71.34-3.67,0.61-5.46,0.36-2.43.75-4.57,0.92-5.35,0.52-2.5,1.27-4.91,1.88-7.38a8.34,8.34,0,0,0,.29-2c0-2.1-1.44-2.46-3.44-2.31a19.09,19.09,0,0,0-5,1,27.5,27.5,0,0,0-6.56,3.72c-7.63,5.48-13.86,14-18.09,22.28-1.67,3.26-6.76,14.49-6.76,21.51,0,4.67,2.45,6,5.3,5.83C1942.75,365.51,1947,361.59,1950.37,358.54Zm36.74-45.59c5.32-8.49,15-24.88,19.43-33.86,2.62-5.33,5.47-11.13,8.06-16.49,2.39-5,5.37-12.49,5.37-15.44,0-1-.44-1.66-1.2-1.59a5.23,5.23,0,0,0-2.7,1.8,51.33,51.33,0,0,0-4.56,6c-2.7,4-5.26,7.85-7.58,12s-4.58,8.21-6.72,12.44a161.46,161.46,0,0,0-6.7,15.13c-1.77,4.76-5.84,14.94-7.21,19.8-0.31,1.11-1.71,5.49-.37,5.38C1984.09,318.08,1985.87,314.89,1987.1,312.95Z" transform="translate(-1226.14 -205)" fill="#fbbe62"/><path d="M2012.85,369.4c-4.29-3-5.42-8.39-5.42-13.6,0-14.09,6.15-29.14,15.28-40.66a66.75,66.75,0,0,1,16.93-15.33c6.52-4,11-5.61,18.3-6.17,3.41-.26,6.51.76,9.66,0.52,2.54-.2,4.56-1.9,6.82-2.08a4.78,4.78,0,0,1,5.16,4.94c0,3.62-2.63,8.22-3.87,11.05-2.53,5.85-5.62,11.66-7.26,17.78-1.23,4.59-2.92,10.1-2.92,15.1,0,5.91,1.89,7.73,4.33,7.54,3.12-.25,7.17-3.76,9.34-6.1A76.64,76.64,0,0,0,2090.35,326c1.3-2.45,2.87-5.64,4.39-8.83s3.93-5.47,7.34-5.73c3.06-.23,4.49,2,4.49,4.77a13,13,0,0,1-1.17,4.57,183,183,0,0,1-12.12,22.06,54,54,0,0,1-9.7,11c-4.14,3.57-8.94,6.72-14.15,7.12-8.59.67-11.63-3.09-15.27-9.59-0.58-1-.87-1.39-1.66-1.33-1.63.13-5.22,5.2-7.1,7.35-4,4.6-10.88,10.68-16.53,12.81a23.74,23.74,0,0,1-6.48,1.49A14.6,14.6,0,0,1,2012.85,369.4Zm16.73-12.71c4.85-3.48,8.53-8.39,12-13.14,4-5.35,7.87-10.74,11.33-16.42,3.18-5.21,8.7-12.12,8.7-18,0-3.1-2.18-3.92-4.88-3.71a25.81,25.81,0,0,0-8.4,2.62,44.69,44.69,0,0,0-14.43,11.62c-7.51,9.09-14.64,22.58-14.64,33.5,0,3.3,1.48,6.17,4.59,5.93A12.07,12.07,0,0,0,2029.57,356.69Z" transform="translate(-1226.14 -205)" fill="#fbbe62"/><path d="M2175.14,301.24c0.78,0.77-1.33,4.53-2,5.85-2.6,5.4-8.06,14.53-9.5,16.94A79.23,79.23,0,0,1,2151,340.22a92.86,92.86,0,0,1-17.9,13.92,72.61,72.61,0,0,1-16.89,7,43.55,43.55,0,0,1-8.39,1.5h0A34,34,0,0,1,2098,362c-2.52-.56-5.39-1.57-6.73-3.9a5.41,5.41,0,0,1-.73-2.74,5.69,5.69,0,0,1,5.61-5.91,13.74,13.74,0,0,1,5.16.86,13.06,13.06,0,0,0,4.94.78,8.55,8.55,0,0,0,3.83-1.27c5.08-3,7.8-9.39,7.8-15,0-6.48-1.08-12.19-2-18.59-0.23-1.62-.4-3.23-0.63-4.84-0.16-1.13-.23-3.09-1.17-3.87a1.21,1.21,0,0,0-.9-0.32c-0.94.07-1.89,1.33-2.86,3.13-0.8,1.48-1.61,3.3-2.46,5.14-1.31,2.58-2.55,6.1-4.41,7.25a5.68,5.68,0,0,1-2.29.64c-2.57.19-6.45-2.08-6.45-4.8,0-2.25,1.58-4.93,2.76-7.11,1.62-3,2.53-5.33,4.26-8.46,3.21-5.82,5.45-10.33,8.71-16.14,2.15-3.84,5.13-9.68,9.7-10a6.58,6.58,0,0,1,3.22.63,6.93,6.93,0,0,1,4.19,6.53c0,3.08-1.77,5.8-1.77,9.28a46.86,46.86,0,0,0,1,9.35c1.27,6.2,2.2,12.68,2.88,19a81.54,81.54,0,0,1,.47,8.57,48.85,48.85,0,0,1-.32,7.69,9.57,9.57,0,0,0-.13,1.46c0,1.06.26,2.09,1.42,2s4.24-.3,10.21-5.53c5.23-4.59,9.51-8.73,13.24-14.56,1.21-1.89,7.74-14.29,9.71-16.56C2165,303.94,2173.34,299.43,2175.14,301.24Z" transform="translate(-1226.14 -205)" fill="#fbbe62"/><path d="M1497.12,424.4c-42.26,39.63-91.95,6.31-134.73-8.46a105.65,105.65,0,0,0,5.93-8.76,123.41,123.41,0,0,0,12.84-29,100.42,100.42,0,0,0,4.24-28.13c0-9.49-2.2-18.49-6.54-28.65a43.23,43.23,0,0,0-14.35-17.5c-6.07-4.44-12.21-6.6-17.93-8.26-6.26-1.82-15.69-2.65-23.45-2-8.34.64-14.9,1.27-23.36,3.5-16.17,4.29-31.42,11.69-42.93,20.84a68.62,68.62,0,0,0-19.8,24.9,41.39,41.39,0,0,0-4.22,17.44c0,8,2.7,15.32,7.31,20.09,2.23,2.31,8.44,7.12,15.59,6.58,5.6-.44,8.6-3.71,8.6-7.21a6.3,6.3,0,0,0-.23-1.69c-1.07-3.95-4.84-5-7.86-5.77-6.19-1.67-9.15-6.42-9.15-12.87,0-6.24,3.09-13.73,8-19.74,9.67-11.83,22.34-20.18,37.58-25.54a115,115,0,0,1,29.22-6.32,60.38,60.38,0,0,1,16.77,1.1,44.21,44.21,0,0,1,17.87,7.51c4.09,3,8.23,7.28,11.64,17.57a55.88,55.88,0,0,1,2.7,17.57c0,8.14-1.92,17.23-5.86,27.76a116.86,116.86,0,0,1-17.74,32c-16.23-4.36-35.37-7.72-52.79-7.77,1.34-3.65,2.78-7.32,4.37-11,3.95-9.12,7-15.63,11.41-24.4,6.92-13.83,11.62-22.24,16.92-28.8,1.07-1.33,6.44-7.54,7.86-9.41,0.88-1.13,2.89-4.08,2.89-7.09a5.88,5.88,0,0,0-6.65-5.83c-4.87.37-8.38,4.84-14.72,13.3a172.27,172.27,0,0,0-15.73,25.88c-3.72,7.4-8.61,17.16-13.2,27.1-3.32,7.22-6.21,14.53-8.61,21.21l-1.82.24a57.71,57.71,0,0,0-24.59,9.84c-5.76,4.2-11.81,10.41-12.53,17.69-0.82,8.35,4.27,15.64,10.58,20.09,4.84,3.4,11.15,5.63,18.74,6.63a65.16,65.16,0,0,0,15,.19,112.09,112.09,0,0,0,26.83-5.07,103.69,103.69,0,0,0,24.61-12.61,120.76,120.76,0,0,0,19.88-17.46c9.44,3.13,18.77,6.55,28,9.79,41.48,14.51,92.36,31.57,131.56-5.19C1520.06,424.17,1501.9,419.93,1497.12,424.4Zm-194.77,17.4a85.28,85.28,0,0,1-17.33,3c-7.49.59-16,.49-22.7-2.71-10.42-5-5.47-17.58,2.75-23.35a35,35,0,0,1,10.85-5.1c-0.16.51-.33,1-0.48,1.51-1.77,5.64-4.56,13.18-4.56,18,0,4.25,2.43,7.2,6.84,6.85,3.09-.23,5.44-2.41,7-6.5,1-2.7,1.84-5.52,2.64-8.27,0.4-1.39.81-2.82,1.24-4.2,0.91-2.91,1.87-5.9,2.88-8.93,6.77,0.2,13.57,1.2,20,1.83a171.66,171.66,0,0,1,28.47,5.45A90.28,90.28,0,0,1,1302.35,441.81Z" transform="translate(-1226.14 -205)" fill="#deb8d8"/><path d="M1387.45,398.75a24,24,0,0,1-1.74-9.2c0-9.7,5-19.93,9.84-28.31,6.4-11,15.6-21.91,27.06-27.79a26.92,26.92,0,0,1,9.68-2.58c7.31-.57,13.45,4,13.45,11.8,0,5.22-2.65,10.79-5.54,15.07-3.62,5.36-8.67,9.6-13.8,13.44a59.56,59.56,0,0,1-8.53,5.51,79.64,79.64,0,0,1-9.41,3.67c-2.59.93-6.59,2-8.57,3.84a5.9,5.9,0,0,0-1.43,4.36c0,7.71,5.64,9.43,11.12,9,7.82-.61,16.3-4.62,23.13-9.43,5.35-3.78,9.72-8.47,13.9-13a93.29,93.29,0,0,0,11.83-16.4c1.48-2.52,2.92-5.75,5.53-7.33a6,6,0,0,1,2.72-.88,5.41,5.41,0,0,1,4.5,1.71,4.3,4.3,0,0,1,1.06,2.91c0,1.72-.91,3.24-1.7,4.84-1.52,3.11-3.81,6.58-5.63,9.54a103.37,103.37,0,0,1-11.84,16.12c-9.35,10.18-20.95,18.4-33.56,22.22a47.76,47.76,0,0,1-10,1.92C1400.23,410.5,1391.24,408,1387.45,398.75Zm29.37-34.41a42.1,42.1,0,0,0,7.33-6c1.4-1.4,9.18-9.23,9.18-12.94,0-1.94-1.34-2-2.43-1.9-2.56.2-6,2-8.2,3.8a63.11,63.11,0,0,0-7.32,6.51,66.89,66.89,0,0,0-6.24,8.09c-0.6.91-2.65,3.74-2.65,5.38a1.09,1.09,0,0,0,1.11,1.25C1410.75,368.32,1414.17,366,1416.82,364.35Z" transform="translate(-1226.14 -205)" fill="#deb8d8"/><path d="M1472.78,402.46a33.83,33.83,0,0,1-9.79-.61c-2.54-.56-5.4-1.58-6.74-3.9a5.38,5.38,0,0,1-.72-2.75,5.68,5.68,0,0,1,5.61-5.9,13.39,13.39,0,0,1,5.16.86,12.71,12.71,0,0,0,4.94.77,8.58,8.58,0,0,0,3.83-1.26c5.09-3.06,7.8-9.41,7.8-15,0-6.48-1.08-12.19-2-18.59-0.22-1.6-.4-3.22-0.63-4.83-0.16-1.13-.23-3.09-1.17-3.87a1.22,1.22,0,0,0-.9-0.32c-0.93.07-1.88,1.33-2.86,3.14-0.8,1.46-1.61,3.3-2.46,5.12-1.31,2.59-2.54,6.11-4.4,7.25a5.58,5.58,0,0,1-2.28.63c-2.58.19-6.47-2.07-6.47-4.79,0-2.25,1.58-4.93,2.76-7.12,1.62-3,2.54-5.34,4.26-8.45,3.21-5.83,5.45-10.33,8.71-16.15,2.15-3.83,5.13-9.67,9.7-10a6.5,6.5,0,0,1,3.22.62,6.93,6.93,0,0,1,4.19,6.53c0,3.08-1.78,5.8-1.78,9.28a47,47,0,0,0,1,9.35c1.26,6.2,2.2,12.69,2.88,19a80.49,80.49,0,0,1,.47,8.56,48.89,48.89,0,0,1-.32,7.69,10.08,10.08,0,0,0-.13,1.45c0,1.06.25,2.08,1.42,2s4-1.84,10-7.07c5.24-4.6,9.32-10.18,13.07-16,1.21-1.89,3-5,4.39-7.66s3-3.25,4.36-3.35a6.79,6.79,0,0,1,3.86.8,5.68,5.68,0,0,1,2.74,4.62c0,2.41-4.13,8.28-5.92,11.28A79.38,79.38,0,0,1,1516,380a92.78,92.78,0,0,1-17.9,13.91,72.08,72.08,0,0,1-16.89,7,43.28,43.28,0,0,1-8.39,1.51h0Z" transform="translate(-1226.14 -205)" fill="#deb8d8"/><path d="M1514.69,389a23.83,23.83,0,0,1-1.75-9.18c0-9.71,5-19.94,9.85-28.33,6.4-11,15.6-21.9,27.06-27.79a26.89,26.89,0,0,1,9.68-2.58c7.31-.55,13.46,4,13.46,11.81,0,5.21-2.65,10.77-5.54,15.07-3.62,5.36-8.67,9.6-13.79,13.44a59.12,59.12,0,0,1-8.54,5.5,79.42,79.42,0,0,1-9.41,3.69c-2.59.91-6.59,2-8.57,3.84a5.88,5.88,0,0,0-1.43,4.34c0,7.71,5.64,9.45,11.12,9,7.81-.61,16.3-4.63,23.13-9.44,5.35-3.76,9.73-8.45,13.9-13A93.63,93.63,0,0,0,1585.7,349c1.47-2.52,2.92-5.74,5.53-7.33a6,6,0,0,1,2.72-.88,5.37,5.37,0,0,1,4.5,1.72,4.28,4.28,0,0,1,1.06,2.92c0,1.71-.92,3.22-1.69,4.83-1.52,3.12-3.81,6.58-5.63,9.54a104,104,0,0,1-11.84,16.12c-9.36,10.19-20.94,18.4-33.57,22.21a47.48,47.48,0,0,1-10,1.92C1527.48,400.73,1518.49,398.21,1514.69,389Zm29.37-34.39a41.89,41.89,0,0,0,7.33-6c1.4-1.4,9.19-9.24,9.19-12.94,0-1.95-1.35-2-2.43-1.89-2.55.19-6,2-8.19,3.8a63.12,63.12,0,0,0-7.31,6.5,66.29,66.29,0,0,0-6.25,8.11c-0.59.89-2.65,3.72-2.65,5.37a1.1,1.1,0,0,0,1.12,1.25C1538,358.54,1541.42,356.21,1544.06,354.59Z" transform="translate(-1226.14 -205)" fill="#deb8d8"/><path d="M1569.1,389.85c0-2,.93-4.06,1.69-5.89,0.9-2.21,1.87-4.42,2.85-6.6,1.83-4.09,3.34-8.05,5.2-12.13,3.76-8.28,6.72-15.11,10-23.58,1.56-4.06,2.87-8.16,4.35-12.22,1.3-3.53,2.33-8,4.81-11a7.16,7.16,0,0,1,4.78-2.55,5.19,5.19,0,0,1,5.79,5.49c0,2.89-2.13,7.19-2.13,9.39a0.86,0.86,0,0,0,.94,1A3,3,0,0,0,1609,331c1.61-1.35,3.1-2.9,4.61-4.36,3-2.89,5.66-5.7,9.31-7.71a26,26,0,0,1,10.17-3.12c4.36-.35,8.53.8,10.84,4.6a14.91,14.91,0,0,1,2,7.86c0,5-1.92,10.38-4.1,14.82-3.73,7.6-8.8,15.27-10.35,23.59a9,9,0,0,0-.15,1.68c0,2.66,1.28,4.74,4,4.54,3.4-.26,8.7-4.65,11.46-7.54,6-6.25,10-14.09,14.18-21.55,0.85-1.53,1.79-3.21,3-5.38a6.09,6.09,0,0,1,4.87-3c2.7-.31,5.36,2.35,5.36,5.42a9.57,9.57,0,0,1-1.08,4.18c-1.16,2.64-3.28,6.28-4.53,8.55a124.15,124.15,0,0,1-7.52,11.84c-5.2,7.18-11.33,13.88-18.9,17.64a22.27,22.27,0,0,1-8.26,2.23c-4.76.38-9.38-1-12.42-4.84a16.41,16.41,0,0,1-3.07-10.27,32.32,32.32,0,0,1,2.69-12.4c1.79-4.13,3.87-8.3,5.92-12.32,2-3.83,3.79-7.55,5.36-11.53a9.46,9.46,0,0,0,.82-3.19c0-2.14-1.3-2.67-2.74-2.57a7.43,7.43,0,0,0-2.28.6c-3.68,1.58-6.78,4.48-9.84,7.06a122.47,122.47,0,0,0-16.79,17.86,116.42,116.42,0,0,0-13.06,21c-1.84,3.7-3.53,7.31-5.42,11a42.39,42.39,0,0,1-3.43,6.21,7,7,0,0,1-5,3.08A5,5,0,0,1,1569.1,389.85Z" transform="translate(-1226.14 -205)" fill="#deb8d8"/><path d="M1675.36,373.89c0-7.22,4.49-15.9,8.52-22.27q2.87-4.5,5.71-9c1.25-2,4.08-5,4.08-7.54,0-3.24-5-4.94-7.36-6.09a5.89,5.89,0,0,0-3-.73c-1.43.11-2.6,1-3.62,3-1.5,2.8-2.65,5.78-4.09,8.61-1.31,2.58-2.54,6.1-4.41,7.25a5.64,5.64,0,0,1-2.28.62c-2.58.21-6.46-2.06-6.46-4.79,0-2.25,1.58-4.93,2.76-7.11,1.62-3,3.34-6.56,4.79-9.64a14.49,14.49,0,0,0,1.56-4.75c0-.17,0-0.33,0-0.5a15.47,15.47,0,0,0-1-4.38,13.09,13.09,0,0,1-.52-3.7,16.48,16.48,0,0,1,6.4-12.8,11.88,11.88,0,0,1,6.07-2.4c4.79-.37,6.44,2.82,6.44,6.35a25.71,25.71,0,0,1-.77,5.41,24.22,24.22,0,0,0-1,4.82c0,3.33,4.13,4.3,6.43,5.64,5.5,3.22,12.79,6.57,12.79,14.25,0,5.94-4.76,11.4-8,16.29-3.59,5.48-8.38,12.44-10.13,18.77a7.18,7.18,0,0,0-.3,2c0,2.08,1.16,3.49,3.46,3.3,5.41-.42,14.06-9.95,16.22-12.37a110,110,0,0,0,12.28-17.83c1.74-3.06,3.66-6.51,5.26-9.47a4.78,4.78,0,0,1,4.41-2.84,5.8,5.8,0,0,1,2.76.49,4.92,4.92,0,0,1,3.27,4.45,8.71,8.71,0,0,1-.62,3.09,97.89,97.89,0,0,1-4.74,9.12c-6.29,11-15.57,23.78-25.94,31.49-4.22,3.15-9.3,5.84-14.39,6.23C1681.52,387.43,1675.36,381.53,1675.36,373.89Z" transform="translate(-1226.14 -205)" fill="#deb8d8"/><path d="M1736.73,386c-6.79.51-13.18-1.72-16.75-8.06a32,32,0,0,1-4-15.19,48.46,48.46,0,0,1,2.26-13.4A64.88,64.88,0,0,1,1733,323.86a44.35,44.35,0,0,1,15-10.05,21.94,21.94,0,0,0,6.69-4.1,17.11,17.11,0,0,1,9.92-4.06c11.14-.86,15.33,11.57,15.33,21.5a65.29,65.29,0,0,1-1.65,13.83,20.48,20.48,0,0,0-.81,3.75c0,1.18.4,1.86,1.65,1.77,1.9-.14,5.4-2.08,6.66-3,4.39-3.26,8.4-6.7,11.18-11.09,1.19-1.89,1.88-3.19,2.61-4.47,0.57-1,1.89-2.22,4.6-2.43,2.91-.23,5.78,1.73,5.78,4.68,0,2.7-2.08,5.79-3.63,8.08a57.35,57.35,0,0,1-11.7,12.46,67.21,67.21,0,0,1-12.64,7.55,39.32,39.32,0,0,1-7.86,2.74,10.82,10.82,0,0,0-5.57,3.06c-1.74,1.77-3.08,3.9-4.65,5.81a52.66,52.66,0,0,1-5.45,5.72c-6.61,6-14.73,9.91-21.78,10.46h0Zm8.07-14.23a35.28,35.28,0,0,0,8.45-6.79c1.59-1.68,3.78-3.43,3.78-5.1,0-1-1.26-1.84-2.34-2.81a25.47,25.47,0,0,1-7.3-9.49c-1.33-3.23-2-6.5-2.11-13.86,0-1,.12-3-1.39-2.75-1.67.23-3.84,3-4.74,4.31a60.19,60.19,0,0,0-6.33,10.27c-2.26,5.21-4.55,10.79-4.55,16.37a21.49,21.49,0,0,0,.39,4.11c0.65,3.38,2.18,6.5,5.61,7.59a9.51,9.51,0,0,0,3.72.38A17.14,17.14,0,0,0,1744.8,371.81Zm21.94-31.64a60.75,60.75,0,0,0,1.44-8.8c0.08-.92.19-2.42,0.19-4.08,0-4.28-.73-9.67-4.55-9.26-2.56.29-4,3.63-4.77,5.71A38.81,38.81,0,0,0,1757,335a18.49,18.49,0,0,0,1,6.19c0.62,1.74,2.16,6.76,4.73,6.55C1764.82,347.54,1766.07,342.94,1766.75,340.16Z" transform="translate(-1226.14 -205)" fill="#deb8d8"/><path d="M1802.17,373.59c-6.17-5.57-8-15.18-7.82-23.41,0.13-7.2,1.58-14.4,3.21-21.54a199.83,199.83,0,0,1,7-24c2.92-7.67,5.54-15.48,9.31-22.85,1.87-3.65,3.61-7.21,5.43-10.89,1.95-3.93,5.16-8.84,7.46-12.57,5.06-8.23,14.68-22.67,25.35-23.5a11.71,11.71,0,0,1,8.65,3.07c2.64,2.24,3.66,5.9,3.65,9.53,0,7.53-3.18,16.1-6.16,23.62s-7.18,15.18-11.1,22.38c-7.74,14.2-17.92,26.94-28.37,39.22-2.6,3-5.26,6-8.08,8.78s-4.57,5.54-4.63,9.81c0,6.91,1.32,15.72,9.55,15.08,7.27-.55,14.32-8.2,18.78-13.57a123.31,123.31,0,0,0,12.94-19.49c1.74-3.09,2.72-5.65,4.64-9a5.45,5.45,0,0,1,4.13-2.59c3.41-.27,6.13,2.13,6.13,5.13,0,2.49-1.62,5.14-2.62,7.33a123.15,123.15,0,0,1-5.89,11c-8.31,14.2-21.58,31.67-37.68,32.9C1810.07,378.5,1806.54,377.54,1802.17,373.59Zm12.78-53c1-1.33,2-2.73,3.06-4.09,7-9.31,13.91-18.68,19.64-28.81a190.67,190.67,0,0,0,9.14-18.12c2.43-5.74,5-11,5.07-17.57,0-1.34-.42-2.63-1.7-2.53a3.85,3.85,0,0,0-2,1,38.29,38.29,0,0,0-5.32,6c-3.49,4.61-6.5,9.67-9.62,14.52a167.63,167.63,0,0,0-15.42,31.72c-1.9,5-4.13,9.77-5.57,14.9-0.7,2.37-1.23,3.25-1.19,4.53,0,0.75.32,1.26,1.13,1.14S1814.42,321.31,1815,320.62Z" transform="translate(-1226.14 -205)" fill="#deb8d8"/><path d="M1845.78,373.3c-4.29-3-5.42-8.37-5.42-13.6,0-14.08,6.16-29.13,15.28-40.66a67,67,0,0,1,16.93-15.33c6.51-4,11-5.6,18.3-6.16,3.4-.27,6.5.76,9.65,0.51,2.55-.19,4.56-1.9,6.82-2.07a4.77,4.77,0,0,1,5.16,4.94c0,3.62-2.63,8.21-3.85,11.05-2.54,5.84-5.62,11.66-7.26,17.78-1.23,4.58-2.92,10.1-2.92,15.1,0,5.91,1.89,7.72,4.32,7.53,3.12-.24,7.17-3.76,9.34-6.09a76.84,76.84,0,0,0,11.15-16.4c1.3-2.46,2.87-5.66,4.39-8.85s3.93-5.46,7.34-5.72c3.06-.24,4.48,2,4.48,4.76a12.86,12.86,0,0,1-1.17,4.56,180.22,180.22,0,0,1-12.12,22.06,53.56,53.56,0,0,1-9.7,11c-4.15,3.58-8.93,6.71-14.15,7.11-8.59.65-11.62-3.08-15.28-9.58-0.58-1-.86-1.39-1.65-1.33-1.63.12-5.22,5.18-7.1,7.34-4,4.6-10.88,10.68-16.54,12.81a23.19,23.19,0,0,1-6.47,1.47A14.45,14.45,0,0,1,1845.78,373.3Zm16.72-12.71c4.85-3.48,8.52-8.39,12-13.14,3.95-5.35,7.87-10.74,11.34-16.42,3.17-5.2,8.69-12.11,8.69-18,0-3.1-2.18-3.91-4.88-3.71a26,26,0,0,0-8.39,2.62,44.84,44.84,0,0,0-14.44,11.62c-7.51,9.1-14.64,22.58-14.64,33.5,0,3.3,1.49,6.17,4.59,5.93A11.92,11.92,0,0,0,1862.51,360.59Z" transform="translate(-1226.14 -205)" fill="#deb8d8"/><path d="M1918,352.19c0-17.81,10.33-36.68,23.52-49.36,6.47-6.22,15.35-10.79,24.64-11.51,1.4-.11,2.8,0,4.19-0.12,2.84-.21,3.94-2.39,4.72-4.71a120.45,120.45,0,0,1,5.06-12.88c2-4.28,3.53-8.63,5.51-12.93,1-2.06,1.8-4,2.73-6.11s2.18-4.12,3.23-6.08a99.22,99.22,0,0,1,7.65-11.5,47.06,47.06,0,0,1,9.1-9.66c3.12-2.42,6.79-4.66,10.68-5,4.42-.34,7.3,2.18,8.71,6a16.11,16.11,0,0,1,.91,5.54c0,6.45-3.07,13.5-5.3,19.29-3.38,8.83-7.8,16.51-12.07,25s-9.57,16.45-14.63,24.58a253.44,253.44,0,0,1-16.42,23,15.9,15.9,0,0,0-2.56,7.75c0,5.63,2.39,12.24,7.21,11.88,4-.29,6.36-1.76,9.47-4.29a67.27,67.27,0,0,0,9.42-10.06,84,84,0,0,0,7.69-11c1.08-1.89,2.58-4.82,3.43-6.66s1.27-2.87,3.29-3.92a5.42,5.42,0,0,1,2.06-.59A5.09,5.09,0,0,1,2026,314a8.48,8.48,0,0,1-1.3,4.58c-1.26,2.15-2.68,5.23-3.92,7.21-2.72,4.33-4.75,7.86-7.62,11.71-5.43,7.23-11.83,13.57-19.37,17.67a26.58,26.58,0,0,1-10.56,3.13c-5,.39-10.45-3.17-13.8-8.86-0.73-1.24-2-2.77-3.23-2.67-1.92.15-3.87,3-5.36,4.6s-3.2,3.4-4.88,5c-5.76,5.59-13.31,11.91-21.44,12.54C1924,369.75,1918,361.14,1918,352.19Zm29.05-2.32a107.59,107.59,0,0,0,9.45-10.17c1.61-1.88,3.21-3.75,4.77-5.65s3.11-3.51,3.84-5.7a12.43,12.43,0,0,0,.62-3c0.11-1.71.34-3.67,0.61-5.46,0.36-2.43.75-4.57,0.92-5.35,0.52-2.5,1.27-4.91,1.88-7.38a8.34,8.34,0,0,0,.29-2c0-2.1-1.44-2.46-3.44-2.31a19.09,19.09,0,0,0-5,1,27.5,27.5,0,0,0-6.56,3.72c-7.63,5.48-13.86,14-18.09,22.28-1.67,3.26-6.76,14.49-6.76,21.51,0,4.67,2.45,6,5.3,5.83C1939.42,356.84,1943.71,352.92,1947,349.87Zm36.74-45.59c5.32-8.49,15-24.88,19.43-33.86,2.62-5.33,5.47-11.13,8.06-16.49,2.39-5,5.37-12.49,5.37-15.44,0-1-.44-1.66-1.2-1.59a5.23,5.23,0,0,0-2.7,1.8,51.33,51.33,0,0,0-4.56,6c-2.7,4-5.26,7.85-7.58,12s-4.58,8.21-6.72,12.44a161.46,161.46,0,0,0-6.7,15.13c-1.77,4.76-5.84,14.94-7.21,19.8-0.31,1.11-1.71,5.49-.37,5.38C1980.76,309.41,1982.54,306.22,1983.77,304.28Z" transform="translate(-1226.14 -205)" fill="#deb8d8"/><path d="M2009.51,360.73c-4.29-3-5.42-8.39-5.42-13.6,0-14.09,6.15-29.14,15.28-40.66a66.75,66.75,0,0,1,16.93-15.33c6.52-4,11-5.61,18.3-6.17,3.41-.26,6.51.76,9.66,0.52,2.54-.2,4.56-1.9,6.82-2.08a4.78,4.78,0,0,1,5.16,4.94c0,3.62-2.63,8.22-3.87,11.05-2.53,5.85-5.62,11.66-7.26,17.78-1.23,4.59-2.92,10.1-2.92,15.1,0,5.91,1.89,7.73,4.33,7.54,3.12-.25,7.17-3.76,9.34-6.1A76.64,76.64,0,0,0,2087,317.33c1.3-2.45,2.87-5.64,4.39-8.83s3.93-5.47,7.34-5.73c3.06-.23,4.49,2,4.49,4.77a13,13,0,0,1-1.17,4.57,183,183,0,0,1-12.12,22.06,54,54,0,0,1-9.7,11c-4.14,3.57-8.94,6.72-14.15,7.12-8.59.67-11.63-3.09-15.27-9.59-0.58-1-.87-1.39-1.66-1.33-1.63.13-5.22,5.2-7.1,7.35-4,4.6-10.88,10.68-16.53,12.81a23.74,23.74,0,0,1-6.48,1.49A14.6,14.6,0,0,1,2009.51,360.73ZM2026.24,348c4.85-3.48,8.53-8.39,12-13.14,4-5.35,7.87-10.74,11.33-16.42,3.18-5.21,8.7-12.12,8.7-18,0-3.1-2.18-3.92-4.88-3.71a25.81,25.81,0,0,0-8.4,2.62A44.69,44.69,0,0,0,2030.59,311c-7.51,9.09-14.64,22.58-14.64,33.5,0,3.3,1.48,6.17,4.59,5.93A12.07,12.07,0,0,0,2026.24,348Z" transform="translate(-1226.14 -205)" fill="#deb8d8"/><path d="M2171.8,292.57c0.78,0.77-1.33,4.53-2,5.85-2.6,5.4-8.06,14.53-9.5,16.94a79.23,79.23,0,0,1-12.71,16.19,92.86,92.86,0,0,1-17.9,13.92,72.61,72.61,0,0,1-16.89,7,43.55,43.55,0,0,1-8.39,1.5h0a34,34,0,0,1-9.79-.61c-2.52-.56-5.39-1.57-6.73-3.9a5.41,5.41,0,0,1-.73-2.74,5.69,5.69,0,0,1,5.61-5.91,13.74,13.74,0,0,1,5.16.86,13.06,13.06,0,0,0,4.94.78,8.55,8.55,0,0,0,3.83-1.27c5.08-3,7.8-9.39,7.8-15,0-6.48-1.08-12.19-2-18.59-0.23-1.62-.4-3.23-0.63-4.84-0.16-1.13-.23-3.09-1.17-3.87a1.21,1.21,0,0,0-.9-0.32c-0.94.07-1.89,1.33-2.86,3.13-0.8,1.48-1.61,3.3-2.46,5.14-1.31,2.58-2.55,6.1-4.41,7.25a5.68,5.68,0,0,1-2.29.64c-2.57.19-6.45-2.08-6.45-4.8,0-2.25,1.58-4.93,2.76-7.11,1.62-3,2.53-5.33,4.26-8.46,3.21-5.82,5.45-10.33,8.71-16.14,2.15-3.84,5.13-9.68,9.7-10a6.58,6.58,0,0,1,3.22.63,6.93,6.93,0,0,1,4.19,6.53c0,3.08-1.77,5.8-1.77,9.28a46.86,46.86,0,0,0,1,9.35c1.27,6.2,2.2,12.68,2.88,19a81.54,81.54,0,0,1,.47,8.57,48.85,48.85,0,0,1-.32,7.69,9.57,9.57,0,0,0-.13,1.46c0,1.06.26,2.09,1.42,2s4.24-.3,10.21-5.53c5.23-4.59,9.51-8.73,13.24-14.56,1.21-1.89,7.74-14.29,9.71-16.56C2161.71,295.27,2170,290.76,2171.8,292.57Z" transform="translate(-1226.14 -205)" fill="#deb8d8"/><path d="M1493.78,415.74c-42.26,39.63-91.95,6.31-134.73-8.46a105.65,105.65,0,0,0,5.93-8.76,123.41,123.41,0,0,0,12.84-29,100.42,100.42,0,0,0,4.24-28.13c0-9.49-2.2-18.49-6.54-28.65a43.23,43.23,0,0,0-14.35-17.5c-6.07-4.44-12.21-6.6-17.93-8.26-6.26-1.82-15.69-2.65-23.45-2-8.34.64-14.9,1.27-23.36,3.5-16.17,4.29-31.42,11.69-42.93,20.84a68.62,68.62,0,0,0-19.8,24.9,41.39,41.39,0,0,0-4.22,17.44c0,8,2.7,15.32,7.31,20.09,2.23,2.31,8.44,7.12,15.59,6.58,5.6-.44,8.6-3.71,8.6-7.21a6.3,6.3,0,0,0-.23-1.69c-1.07-3.95-4.84-5-7.86-5.77-6.19-1.67-9.15-6.42-9.15-12.87,0-6.24,3.09-13.73,8-19.74,9.67-11.83,22.34-20.18,37.58-25.54a115,115,0,0,1,29.22-6.32,60.38,60.38,0,0,1,16.77,1.1,44.21,44.21,0,0,1,17.87,7.51c4.09,3,8.23,7.28,11.64,17.57a55.88,55.88,0,0,1,2.7,17.57c0,8.14-1.92,17.23-5.86,27.76a116.86,116.86,0,0,1-17.74,32c-16.23-4.36-35.37-7.72-52.79-7.77,1.34-3.65,2.78-7.32,4.37-11,3.95-9.12,7-15.63,11.41-24.4,6.92-13.83,11.62-22.24,16.92-28.8,1.07-1.33,6.44-7.54,7.86-9.41,0.88-1.13,2.89-4.08,2.89-7.09a5.88,5.88,0,0,0-6.65-5.83c-4.87.37-8.38,4.84-14.72,13.3a172.27,172.27,0,0,0-15.73,25.88c-3.72,7.4-8.61,17.16-13.2,27.1-3.32,7.22-6.21,14.53-8.61,21.21l-1.82.24a57.71,57.71,0,0,0-24.59,9.84c-5.76,4.2-11.81,10.41-12.53,17.69-0.82,8.35,4.27,15.64,10.58,20.09,4.84,3.4,11.15,5.63,18.74,6.63a65.16,65.16,0,0,0,15,.19,112.09,112.09,0,0,0,26.83-5.07,103.69,103.69,0,0,0,24.61-12.61,120.76,120.76,0,0,0,19.88-17.46c9.44,3.13,18.77,6.55,28,9.79,41.48,14.51,92.36,31.57,131.56-5.19C1516.72,415.5,1498.57,411.26,1493.78,415.74ZM1299,433.14a85.28,85.28,0,0,1-17.33,3c-7.49.59-16,.49-22.7-2.71-10.42-5-5.47-17.58,2.75-23.35a35,35,0,0,1,10.85-5.1c-0.16.51-.33,1-0.48,1.51-1.77,5.64-4.56,13.18-4.56,18,0,4.25,2.43,7.2,6.84,6.85,3.09-.23,5.44-2.41,7-6.5,1-2.7,1.84-5.52,2.64-8.27,0.4-1.39.81-2.82,1.24-4.2,0.91-2.91,1.87-5.9,2.88-8.93,6.77,0.2,13.57,1.2,20,1.83a171.66,171.66,0,0,1,28.47,5.45A90.28,90.28,0,0,1,1299,433.14Z" transform="translate(-1226.14 -205)" fill="#aedad9"/><path d="M1384.11,390.09a24,24,0,0,1-1.74-9.2c0-9.7,5-19.93,9.84-28.31,6.4-11,15.6-21.91,27.06-27.79a26.92,26.92,0,0,1,9.68-2.58c7.31-.57,13.45,4,13.45,11.8,0,5.22-2.65,10.79-5.54,15.07-3.62,5.36-8.67,9.6-13.8,13.44a59.56,59.56,0,0,1-8.53,5.51,79.64,79.64,0,0,1-9.41,3.67c-2.59.93-6.59,2-8.57,3.84a5.9,5.9,0,0,0-1.43,4.36c0,7.71,5.64,9.43,11.12,9,7.82-.61,16.3-4.62,23.13-9.43,5.35-3.78,9.72-8.47,13.9-13a93.29,93.29,0,0,0,11.83-16.4c1.48-2.52,2.92-5.75,5.53-7.33a6,6,0,0,1,2.72-.88,5.41,5.41,0,0,1,4.5,1.71,4.3,4.3,0,0,1,1.06,2.91c0,1.72-.91,3.24-1.7,4.84-1.52,3.11-3.81,6.58-5.63,9.54A103.37,103.37,0,0,1,1449.77,377c-9.35,10.18-20.95,18.4-33.56,22.22a47.76,47.76,0,0,1-10,1.92C1396.9,401.83,1387.91,399.31,1384.11,390.09Zm29.37-34.41a42.1,42.1,0,0,0,7.33-6c1.4-1.4,9.18-9.23,9.18-12.94,0-1.94-1.34-2-2.43-1.9-2.56.2-6,2-8.2,3.8a63.11,63.11,0,0,0-7.32,6.51,66.89,66.89,0,0,0-6.24,8.09c-0.6.91-2.65,3.74-2.65,5.38a1.09,1.09,0,0,0,1.11,1.25C1407.42,359.65,1410.84,357.32,1413.48,355.68Z" transform="translate(-1226.14 -205)" fill="#aedad9"/><path d="M1469.45,393.8a33.83,33.83,0,0,1-9.79-.61c-2.54-.56-5.4-1.58-6.74-3.9a5.38,5.38,0,0,1-.72-2.75,5.68,5.68,0,0,1,5.61-5.9,13.39,13.39,0,0,1,5.16.86,12.71,12.71,0,0,0,4.94.77,8.58,8.58,0,0,0,3.83-1.26c5.09-3.06,7.8-9.41,7.8-15,0-6.48-1.08-12.19-2-18.59-0.22-1.6-.4-3.22-0.63-4.83-0.16-1.13-.23-3.09-1.17-3.87a1.22,1.22,0,0,0-.9-0.32c-0.93.07-1.88,1.33-2.86,3.14-0.8,1.46-1.61,3.3-2.46,5.12-1.31,2.59-2.54,6.11-4.4,7.25a5.58,5.58,0,0,1-2.28.63c-2.58.19-6.47-2.07-6.47-4.79,0-2.25,1.58-4.93,2.76-7.12,1.62-3,2.54-5.34,4.26-8.45,3.21-5.83,5.45-10.33,8.71-16.15,2.15-3.83,5.13-9.67,9.7-10a6.5,6.5,0,0,1,3.22.62,6.93,6.93,0,0,1,4.19,6.53c0,3.08-1.78,5.8-1.78,9.28a47,47,0,0,0,1,9.35c1.26,6.2,2.2,12.69,2.88,19a80.49,80.49,0,0,1,.47,8.56,48.89,48.89,0,0,1-.32,7.69,10.08,10.08,0,0,0-.13,1.45c0,1.06.25,2.08,1.42,2s4-1.84,10-7.07c5.24-4.6,9.32-10.18,13.07-16,1.21-1.89,3-5,4.39-7.66s3-3.25,4.36-3.35a6.79,6.79,0,0,1,3.86.8,5.68,5.68,0,0,1,2.74,4.62c0,2.41-4.13,8.28-5.92,11.28a79.38,79.38,0,0,1-12.71,16.19,92.78,92.78,0,0,1-17.9,13.91,72.08,72.08,0,0,1-16.89,7,43.28,43.28,0,0,1-8.39,1.51h0Z" transform="translate(-1226.14 -205)" fill="#aedad9"/><path d="M1511.36,380.32a23.83,23.83,0,0,1-1.75-9.18c0-9.71,5-19.94,9.85-28.33,6.4-11,15.6-21.9,27.06-27.79a26.89,26.89,0,0,1,9.68-2.58c7.31-.55,13.46,4,13.46,11.81,0,5.21-2.65,10.77-5.54,15.07-3.62,5.36-8.67,9.6-13.79,13.44a59.12,59.12,0,0,1-8.54,5.5,79.42,79.42,0,0,1-9.41,3.69c-2.59.91-6.59,2-8.57,3.84a5.88,5.88,0,0,0-1.43,4.34c0,7.71,5.64,9.45,11.12,9,7.81-.61,16.3-4.63,23.13-9.44,5.35-3.76,9.73-8.45,13.9-13a93.63,93.63,0,0,0,11.83-16.42c1.47-2.52,2.92-5.74,5.53-7.33a6,6,0,0,1,2.72-.88,5.37,5.37,0,0,1,4.5,1.72,4.28,4.28,0,0,1,1.06,2.92c0,1.71-.92,3.22-1.69,4.83-1.52,3.12-3.81,6.58-5.63,9.54A104,104,0,0,1,1577,367.22c-9.36,10.19-20.94,18.4-33.57,22.21a47.48,47.48,0,0,1-10,1.92C1524.14,392.06,1515.15,389.54,1511.36,380.32Zm29.37-34.39a41.89,41.89,0,0,0,7.33-6c1.4-1.4,9.19-9.24,9.19-12.94,0-1.95-1.35-2-2.43-1.89-2.55.19-6,2-8.19,3.8a63.12,63.12,0,0,0-7.31,6.5,66.29,66.29,0,0,0-6.25,8.11c-0.59.89-2.65,3.72-2.65,5.37a1.1,1.1,0,0,0,1.12,1.25C1534.65,349.88,1538.08,347.54,1540.72,345.93Z" transform="translate(-1226.14 -205)" fill="#aedad9"/><path d="M1565.76,381.18c0-2,.93-4.06,1.69-5.89,0.9-2.21,1.87-4.42,2.85-6.6,1.83-4.09,3.34-8.05,5.2-12.13,3.76-8.28,6.72-15.11,10-23.58,1.56-4.06,2.87-8.16,4.35-12.22,1.3-3.53,2.33-8,4.81-11a7.16,7.16,0,0,1,4.78-2.55,5.19,5.19,0,0,1,5.79,5.49c0,2.89-2.13,7.19-2.13,9.39a0.86,0.86,0,0,0,.94,1,3,3,0,0,0,1.62-.79c1.61-1.35,3.1-2.9,4.61-4.36,3-2.89,5.66-5.7,9.31-7.71a26,26,0,0,1,10.17-3.12c4.36-.35,8.53.8,10.84,4.6a14.91,14.91,0,0,1,2,7.86c0,5-1.92,10.38-4.1,14.82-3.73,7.6-8.8,15.27-10.35,23.59a9,9,0,0,0-.15,1.68c0,2.66,1.28,4.74,4,4.54,3.4-.26,8.7-4.65,11.46-7.54,6-6.25,10-14.09,14.18-21.55,0.85-1.53,1.79-3.21,3-5.38a6.09,6.09,0,0,1,4.87-3c2.7-.31,5.36,2.35,5.36,5.42a9.57,9.57,0,0,1-1.08,4.18c-1.16,2.64-3.28,6.28-4.53,8.55a124.15,124.15,0,0,1-7.52,11.84c-5.2,7.18-11.33,13.88-18.9,17.64a22.27,22.27,0,0,1-8.26,2.23c-4.76.38-9.38-1-12.42-4.84a16.41,16.41,0,0,1-3.07-10.27,32.32,32.32,0,0,1,2.69-12.4c1.79-4.13,3.87-8.3,5.92-12.32,2-3.83,3.79-7.55,5.36-11.53a9.46,9.46,0,0,0,.82-3.19c0-2.14-1.3-2.67-2.74-2.57a7.43,7.43,0,0,0-2.28.6c-3.68,1.58-6.78,4.48-9.84,7.06A122.47,122.47,0,0,0,1598.25,345a116.42,116.42,0,0,0-13.06,21c-1.84,3.7-3.53,7.31-5.42,11a42.39,42.39,0,0,1-3.43,6.21,7,7,0,0,1-5,3.08A5,5,0,0,1,1565.76,381.18Z" transform="translate(-1226.14 -205)" fill="#aedad9"/><path d="M1672,365.22c0-7.22,4.49-15.9,8.52-22.27q2.87-4.5,5.71-9c1.25-2,4.08-5,4.08-7.54,0-3.24-5-4.94-7.36-6.09a5.89,5.89,0,0,0-3-.73c-1.43.11-2.6,1-3.62,3-1.5,2.8-2.65,5.78-4.09,8.61-1.31,2.58-2.54,6.1-4.41,7.25a5.64,5.64,0,0,1-2.28.62c-2.58.21-6.46-2.06-6.46-4.79,0-2.25,1.58-4.93,2.76-7.11,1.62-3,3.34-6.56,4.79-9.64a14.49,14.49,0,0,0,1.56-4.75c0-.17,0-0.33,0-0.5a15.47,15.47,0,0,0-1-4.38,13.09,13.09,0,0,1-.52-3.7,16.48,16.48,0,0,1,6.4-12.8,11.88,11.88,0,0,1,6.07-2.4c4.79-.37,6.44,2.82,6.44,6.35a25.71,25.71,0,0,1-.77,5.41,24.22,24.22,0,0,0-1,4.82c0,3.33,4.13,4.3,6.43,5.64,5.5,3.22,12.79,6.57,12.79,14.25,0,5.94-4.76,11.4-8,16.29-3.59,5.48-8.38,12.44-10.13,18.77a7.18,7.18,0,0,0-.3,2c0,2.08,1.16,3.49,3.46,3.3,5.41-.42,14.06-9.95,16.22-12.37a110,110,0,0,0,12.28-17.83c1.74-3.06,3.66-6.51,5.26-9.47a4.78,4.78,0,0,1,4.41-2.84,5.8,5.8,0,0,1,2.76.49,4.92,4.92,0,0,1,3.27,4.45,8.71,8.71,0,0,1-.62,3.09,97.89,97.89,0,0,1-4.74,9.12c-6.29,11-15.57,23.78-25.94,31.49-4.22,3.15-9.3,5.84-14.39,6.23C1678.18,378.76,1672,372.86,1672,365.22Z" transform="translate(-1226.14 -205)" fill="#aedad9"/><path d="M1733.4,377.37c-6.79.51-13.18-1.72-16.75-8.06a32,32,0,0,1-4-15.19,48.46,48.46,0,0,1,2.26-13.4,64.88,64.88,0,0,1,14.82-25.53,44.35,44.35,0,0,1,15-10.05,21.94,21.94,0,0,0,6.69-4.1,17.11,17.11,0,0,1,9.92-4.06c11.14-.86,15.33,11.57,15.33,21.5a65.29,65.29,0,0,1-1.65,13.83,20.48,20.48,0,0,0-.81,3.75c0,1.18.4,1.86,1.65,1.77,1.9-.14,5.4-2.08,6.66-3,4.39-3.26,8.4-6.7,11.18-11.09,1.19-1.89,1.88-3.19,2.61-4.47,0.57-1,1.89-2.22,4.6-2.43,2.91-.23,5.78,1.73,5.78,4.68,0,2.7-2.08,5.79-3.63,8.08a57.35,57.35,0,0,1-11.7,12.46,67.21,67.21,0,0,1-12.64,7.55,39.32,39.32,0,0,1-7.86,2.74,10.82,10.82,0,0,0-5.57,3.06c-1.74,1.77-3.08,3.9-4.65,5.81a52.66,52.66,0,0,1-5.45,5.72c-6.61,6-14.73,9.91-21.78,10.46h0Zm8.07-14.23a35.28,35.28,0,0,0,8.45-6.79c1.59-1.68,3.78-3.43,3.78-5.1,0-1-1.26-1.84-2.34-2.81a25.47,25.47,0,0,1-7.3-9.49c-1.33-3.23-2-6.5-2.11-13.86,0-1,.12-3-1.39-2.75-1.67.23-3.84,3-4.74,4.31a60.19,60.19,0,0,0-6.33,10.27c-2.26,5.21-4.55,10.79-4.55,16.37a21.49,21.49,0,0,0,.39,4.11c0.65,3.38,2.18,6.5,5.61,7.59a9.51,9.51,0,0,0,3.72.38A17.14,17.14,0,0,0,1741.47,363.14Zm21.94-31.64a60.75,60.75,0,0,0,1.44-8.8c0.08-.92.19-2.42,0.19-4.08,0-4.28-.73-9.67-4.55-9.26-2.56.29-4,3.63-4.77,5.71a38.81,38.81,0,0,0-2.07,11.22,18.49,18.49,0,0,0,1,6.19c0.62,1.74,2.16,6.76,4.73,6.55C1761.48,338.87,1762.74,334.27,1763.41,331.5Z" transform="translate(-1226.14 -205)" fill="#aedad9"/><path d="M1798.84,364.92c-6.17-5.57-8-15.18-7.82-23.41,0.13-7.2,1.58-14.4,3.21-21.54a199.83,199.83,0,0,1,7-24c2.92-7.67,5.54-15.48,9.31-22.85,1.87-3.65,3.61-7.21,5.43-10.89,1.95-3.93,5.16-8.84,7.46-12.57,5.06-8.23,14.68-22.67,25.35-23.5a11.71,11.71,0,0,1,8.65,3.07c2.64,2.24,3.66,5.9,3.65,9.53,0,7.53-3.18,16.1-6.16,23.62s-7.18,15.18-11.1,22.38c-7.74,14.2-17.92,26.94-28.37,39.22-2.6,3-5.26,6-8.08,8.78s-4.57,5.54-4.63,9.81c0,6.91,1.32,15.72,9.55,15.08,7.27-.55,14.32-8.2,18.78-13.57a123.31,123.31,0,0,0,12.94-19.49c1.74-3.09,2.72-5.65,4.64-9a5.45,5.45,0,0,1,4.13-2.59c3.41-.27,6.13,2.13,6.13,5.13,0,2.49-1.62,5.14-2.62,7.33a123.15,123.15,0,0,1-5.89,11c-8.31,14.2-21.58,31.67-37.68,32.9C1806.73,369.83,1803.2,368.87,1798.84,364.92Zm12.78-53c1-1.33,2-2.73,3.06-4.09,7-9.31,13.91-18.68,19.64-28.81a190.67,190.67,0,0,0,9.14-18.12c2.43-5.74,5-11,5.07-17.57,0-1.34-.42-2.63-1.7-2.53a3.85,3.85,0,0,0-2,1,38.29,38.29,0,0,0-5.32,6c-3.49,4.61-6.5,9.67-9.62,14.52a167.63,167.63,0,0,0-15.42,31.72c-1.9,5-4.13,9.77-5.57,14.9-0.7,2.37-1.23,3.25-1.19,4.53,0,0.75.32,1.26,1.13,1.14S1811.08,312.64,1811.61,311.95Z" transform="translate(-1226.14 -205)" fill="#aedad9"/><path d="M1842.44,364.63c-4.29-3-5.42-8.37-5.42-13.6,0-14.08,6.16-29.13,15.28-40.66A67,67,0,0,1,1869.23,295c6.51-4,11-5.6,18.3-6.16,3.4-.27,6.5.76,9.65,0.51,2.55-.19,4.56-1.9,6.82-2.07a4.77,4.77,0,0,1,5.16,4.94c0,3.62-2.63,8.21-3.85,11.05-2.54,5.84-5.62,11.66-7.26,17.78-1.23,4.58-2.92,10.1-2.92,15.1,0,5.91,1.89,7.72,4.32,7.53,3.12-.24,7.17-3.76,9.34-6.09a76.84,76.84,0,0,0,11.15-16.4c1.3-2.46,2.87-5.66,4.39-8.85s3.93-5.46,7.34-5.72c3.06-.24,4.48,2,4.48,4.76A12.86,12.86,0,0,1,1935,316a180.22,180.22,0,0,1-12.12,22.06,53.56,53.56,0,0,1-9.7,11c-4.15,3.58-8.93,6.71-14.15,7.11-8.59.65-11.62-3.08-15.28-9.58-0.58-1-.86-1.39-1.65-1.33-1.63.12-5.22,5.18-7.1,7.34-4,4.6-10.88,10.68-16.54,12.81a23.19,23.19,0,0,1-6.47,1.47A14.45,14.45,0,0,1,1842.44,364.63Zm16.72-12.71c4.85-3.48,8.52-8.39,12-13.14,3.95-5.35,7.87-10.74,11.34-16.42,3.17-5.2,8.69-12.11,8.69-18,0-3.1-2.18-3.91-4.88-3.71a26,26,0,0,0-8.39,2.62,44.84,44.84,0,0,0-14.44,11.62c-7.51,9.1-14.64,22.58-14.64,33.5,0,3.3,1.49,6.17,4.59,5.93A11.92,11.92,0,0,0,1859.17,351.92Z" transform="translate(-1226.14 -205)" fill="#aedad9"/><path d="M1914.64,343.52c0-17.81,10.33-36.68,23.52-49.36,6.47-6.22,15.35-10.79,24.64-11.51,1.4-.11,2.8,0,4.19-0.12,2.84-.21,3.94-2.39,4.72-4.71a120.45,120.45,0,0,1,5.06-12.88c2-4.28,3.53-8.63,5.51-12.93,1-2.06,1.8-4,2.73-6.11s2.18-4.12,3.23-6.08a99.22,99.22,0,0,1,7.65-11.5,47.06,47.06,0,0,1,9.1-9.66c3.12-2.42,6.79-4.66,10.68-5,4.42-.34,7.3,2.18,8.71,6a16.11,16.11,0,0,1,.91,5.54c0,6.45-3.07,13.5-5.3,19.29-3.38,8.83-7.8,16.51-12.07,25s-9.57,16.45-14.63,24.58a253.44,253.44,0,0,1-16.42,23,15.9,15.9,0,0,0-2.56,7.75c0,5.63,2.39,12.24,7.21,11.88,4-.29,6.36-1.76,9.47-4.29a67.27,67.27,0,0,0,9.42-10.06,84,84,0,0,0,7.69-11c1.08-1.89,2.58-4.82,3.43-6.66s1.27-2.87,3.29-3.92a5.42,5.42,0,0,1,2.06-.59,5.09,5.09,0,0,1,5.76,5.15,8.48,8.48,0,0,1-1.3,4.58c-1.26,2.15-2.68,5.23-3.92,7.21-2.72,4.33-4.75,7.86-7.62,11.71-5.43,7.23-11.83,13.57-19.37,17.67a26.58,26.58,0,0,1-10.56,3.13c-5,.39-10.45-3.17-13.8-8.86-0.73-1.24-2-2.77-3.23-2.67-1.92.15-3.87,3-5.36,4.6s-3.2,3.4-4.88,5c-5.76,5.59-13.31,11.91-21.44,12.54C1920.64,361.08,1914.64,352.47,1914.64,343.52Zm29.05-2.32a107.59,107.59,0,0,0,9.45-10.17c1.61-1.88,3.21-3.75,4.77-5.65s3.11-3.51,3.84-5.7a12.43,12.43,0,0,0,.62-3c0.11-1.71.34-3.67,0.61-5.46,0.36-2.43.75-4.57,0.92-5.35,0.52-2.5,1.27-4.91,1.88-7.38a8.34,8.34,0,0,0,.29-2c0-2.1-1.44-2.46-3.44-2.31a19.09,19.09,0,0,0-5,1,27.5,27.5,0,0,0-6.56,3.72c-7.63,5.48-13.86,14-18.09,22.28-1.67,3.26-6.76,14.49-6.76,21.51,0,4.67,2.45,6,5.3,5.83C1936.08,348.18,1940.37,344.25,1943.69,341.2Zm36.74-45.59c5.32-8.49,15-24.88,19.43-33.86,2.62-5.33,5.47-11.13,8.06-16.49,2.39-5,5.37-12.49,5.37-15.44,0-1-.44-1.66-1.2-1.59a5.23,5.23,0,0,0-2.7,1.8,51.33,51.33,0,0,0-4.56,6c-2.7,4-5.26,7.85-7.58,12s-4.58,8.21-6.72,12.44a161.46,161.46,0,0,0-6.7,15.13c-1.77,4.76-5.84,14.94-7.21,19.8-0.31,1.11-1.71,5.49-.37,5.38C1977.42,300.74,1979.2,297.56,1980.43,295.61Z" transform="translate(-1226.14 -205)" fill="#aedad9"/><path d="M2006.17,352.06c-4.29-3-5.42-8.39-5.42-13.6,0-14.09,6.15-29.14,15.28-40.66A66.75,66.75,0,0,1,2033,282.48c6.52-4,11-5.61,18.3-6.17,3.41-.26,6.51.76,9.66,0.52,2.54-.2,4.56-1.9,6.82-2.08a4.78,4.78,0,0,1,5.16,4.94c0,3.62-2.63,8.22-3.87,11.05-2.53,5.85-5.62,11.66-7.26,17.78-1.23,4.59-2.92,10.1-2.92,15.1,0,5.91,1.89,7.73,4.33,7.54,3.12-.25,7.17-3.76,9.34-6.1a76.64,76.64,0,0,0,11.15-16.41c1.3-2.45,2.87-5.64,4.39-8.83s3.93-5.47,7.34-5.73c3.06-.23,4.49,2,4.49,4.77a13,13,0,0,1-1.17,4.57,183,183,0,0,1-12.12,22.06,54,54,0,0,1-9.7,11c-4.14,3.57-8.94,6.72-14.15,7.12-8.59.67-11.63-3.09-15.27-9.59-0.58-1-.87-1.39-1.66-1.33-1.63.13-5.22,5.2-7.1,7.35-4,4.6-10.88,10.68-16.53,12.81a23.74,23.74,0,0,1-6.48,1.49A14.6,14.6,0,0,1,2006.17,352.06Zm16.73-12.71c4.85-3.48,8.53-8.39,12-13.14,4-5.35,7.87-10.74,11.33-16.42,3.18-5.21,8.7-12.12,8.7-18,0-3.1-2.18-3.92-4.88-3.71a25.81,25.81,0,0,0-8.4,2.62,44.69,44.69,0,0,0-14.43,11.62c-7.51,9.09-14.64,22.58-14.64,33.5,0,3.3,1.48,6.17,4.59,5.93A12.07,12.07,0,0,0,2022.9,339.35Z" transform="translate(-1226.14 -205)" fill="#aedad9"/><path d="M2168.47,283.9c0.78,0.77-1.33,4.53-2,5.85-2.6,5.4-8.06,14.53-9.5,16.94a79.23,79.23,0,0,1-12.71,16.19,92.86,92.86,0,0,1-17.9,13.92,72.61,72.61,0,0,1-16.89,7,43.55,43.55,0,0,1-8.39,1.5h0a34,34,0,0,1-9.79-.61c-2.52-.56-5.39-1.57-6.73-3.9a5.41,5.41,0,0,1-.73-2.74,5.69,5.69,0,0,1,5.61-5.91,13.74,13.74,0,0,1,5.16.86,13.06,13.06,0,0,0,4.94.78,8.55,8.55,0,0,0,3.83-1.27c5.08-3,7.8-9.39,7.8-15,0-6.48-1.08-12.19-2-18.59-0.23-1.62-.4-3.23-0.63-4.84-0.16-1.13-.23-3.09-1.17-3.87a1.21,1.21,0,0,0-.9-0.32c-0.94.07-1.89,1.33-2.86,3.13-0.8,1.48-1.61,3.3-2.46,5.14-1.31,2.58-2.55,6.1-4.41,7.25a5.68,5.68,0,0,1-2.29.64c-2.57.19-6.45-2.08-6.45-4.8,0-2.25,1.58-4.93,2.76-7.11,1.62-3,2.53-5.33,4.26-8.46,3.21-5.82,5.45-10.33,8.71-16.14,2.15-3.84,5.13-9.68,9.7-10a6.58,6.58,0,0,1,3.22.63,6.93,6.93,0,0,1,4.19,6.53c0,3.08-1.77,5.8-1.77,9.28a46.86,46.86,0,0,0,1,9.35c1.27,6.2,2.2,12.68,2.88,19a81.54,81.54,0,0,1,.47,8.57,48.85,48.85,0,0,1-.32,7.69,9.57,9.57,0,0,0-.13,1.46c0,1.06.26,2.09,1.42,2s4.24-.3,10.21-5.53c5.23-4.59,9.51-8.73,13.24-14.56,1.21-1.89,7.74-14.29,9.71-16.56C2158.37,286.61,2166.67,282.09,2168.47,283.9Z" transform="translate(-1226.14 -205)" fill="#aedad9"/><path d="M1490.45,407.07c-42.26,39.63-91.95,6.31-134.73-8.46a105.65,105.65,0,0,0,5.93-8.76,123.41,123.41,0,0,0,12.84-29,100.42,100.42,0,0,0,4.24-28.13c0-9.49-2.2-18.49-6.54-28.65a43.23,43.23,0,0,0-14.35-17.5c-6.07-4.44-12.21-6.6-17.93-8.26-6.26-1.82-15.69-2.65-23.45-2-8.34.64-14.9,1.27-23.36,3.5-16.17,4.29-31.42,11.69-42.93,20.84a68.62,68.62,0,0,0-19.8,24.9,41.39,41.39,0,0,0-4.22,17.44c0,8,2.7,15.32,7.31,20.09,2.23,2.31,8.44,7.12,15.59,6.58,5.6-.44,8.6-3.71,8.6-7.21a6.3,6.3,0,0,0-.23-1.69c-1.07-3.95-4.84-5-7.86-5.77-6.19-1.67-9.15-6.42-9.15-12.87,0-6.24,3.09-13.73,8-19.74,9.67-11.83,22.34-20.18,37.58-25.54a115,115,0,0,1,29.22-6.32,60.38,60.38,0,0,1,16.77,1.1,44.21,44.21,0,0,1,17.87,7.51c4.09,3,8.23,7.28,11.64,17.57a55.88,55.88,0,0,1,2.7,17.57c0,8.14-1.92,17.23-5.86,27.76a116.86,116.86,0,0,1-17.74,32c-16.23-4.36-35.37-7.72-52.79-7.77,1.34-3.65,2.78-7.32,4.37-11,3.95-9.12,7-15.63,11.41-24.4,6.92-13.83,11.62-22.24,16.92-28.8,1.07-1.33,6.44-7.54,7.86-9.41,0.88-1.13,2.89-4.08,2.89-7.09a5.88,5.88,0,0,0-6.65-5.83c-4.87.37-8.38,4.84-14.72,13.3a172.27,172.27,0,0,0-15.73,25.88c-3.72,7.4-8.61,17.16-13.2,27.1-3.32,7.22-6.21,14.53-8.61,21.21l-1.82.24a57.71,57.71,0,0,0-24.59,9.84c-5.76,4.2-11.81,10.41-12.53,17.69-0.82,8.35,4.27,15.64,10.58,20.09,4.84,3.4,11.15,5.63,18.74,6.63a65.16,65.16,0,0,0,15,.19,112.09,112.09,0,0,0,26.83-5.07,103.69,103.69,0,0,0,24.61-12.61A120.76,120.76,0,0,0,1349,406.73c9.44,3.13,18.77,6.55,28,9.79,41.48,14.51,92.36,31.57,131.56-5.19C1513.38,406.83,1495.23,402.59,1490.45,407.07Zm-194.77,17.4a85.28,85.28,0,0,1-17.33,3c-7.49.59-16,.49-22.7-2.71-10.42-5-5.47-17.58,2.75-23.35a35,35,0,0,1,10.85-5.1c-0.16.51-.33,1-0.48,1.51-1.77,5.64-4.56,13.18-4.56,18,0,4.25,2.43,7.2,6.84,6.85,3.09-.23,5.44-2.41,7-6.5,1-2.7,1.84-5.52,2.64-8.27,0.4-1.39.81-2.82,1.24-4.2,0.91-2.91,1.87-5.9,2.88-8.93,6.77,0.2,13.57,1.2,20,1.83a171.66,171.66,0,0,1,28.47,5.45A90.28,90.28,0,0,1,1295.68,424.47Z" transform="translate(-1226.14 -205)" fill="#1d1d1b"/><path d="M1380.77,381.42a24,24,0,0,1-1.74-9.2c0-9.7,5-19.93,9.84-28.31,6.4-11,15.6-21.91,27.06-27.79a26.92,26.92,0,0,1,9.68-2.58c7.31-.57,13.45,4,13.45,11.8,0,5.22-2.65,10.79-5.54,15.07-3.62,5.36-8.67,9.6-13.8,13.44a59.56,59.56,0,0,1-8.53,5.51,79.64,79.64,0,0,1-9.41,3.67c-2.59.93-6.59,2-8.57,3.84a5.9,5.9,0,0,0-1.43,4.36c0,7.71,5.64,9.43,11.12,9,7.82-.61,16.3-4.62,23.13-9.43,5.35-3.78,9.72-8.47,13.9-13a93.29,93.29,0,0,0,11.83-16.4c1.48-2.52,2.92-5.75,5.53-7.33a6,6,0,0,1,2.72-.88,5.41,5.41,0,0,1,4.5,1.71,4.3,4.3,0,0,1,1.06,2.91c0,1.72-.91,3.24-1.7,4.84-1.52,3.11-3.81,6.58-5.63,9.54a103.37,103.37,0,0,1-11.84,16.12c-9.35,10.18-20.95,18.4-33.56,22.22a47.76,47.76,0,0,1-10,1.92C1393.56,393.16,1384.57,390.64,1380.77,381.42ZM1410.15,347a42.1,42.1,0,0,0,7.33-6c1.4-1.4,9.18-9.23,9.18-12.94,0-1.94-1.34-2-2.43-1.9-2.56.2-6,2-8.2,3.8a63.11,63.11,0,0,0-7.32,6.51,66.89,66.89,0,0,0-6.24,8.09c-0.6.91-2.65,3.74-2.65,5.38a1.09,1.09,0,0,0,1.11,1.25C1404.08,351,1407.5,348.65,1410.15,347Z" transform="translate(-1226.14 -205)" fill="#1d1d1b"/><path d="M1466.11,385.13a33.83,33.83,0,0,1-9.79-.61c-2.54-.56-5.4-1.58-6.74-3.9a5.38,5.38,0,0,1-.72-2.75,5.68,5.68,0,0,1,5.61-5.9,13.39,13.39,0,0,1,5.16.86,12.71,12.71,0,0,0,4.94.77,8.58,8.58,0,0,0,3.83-1.26c5.09-3.06,7.8-9.41,7.8-15,0-6.48-1.08-12.19-2-18.59-0.22-1.6-.4-3.22-0.63-4.83-0.16-1.13-.23-3.09-1.17-3.87a1.22,1.22,0,0,0-.9-0.32c-0.93.07-1.88,1.33-2.86,3.14-0.8,1.46-1.61,3.3-2.46,5.12-1.31,2.59-2.54,6.11-4.4,7.25a5.58,5.58,0,0,1-2.28.63c-2.58.19-6.47-2.07-6.47-4.79,0-2.25,1.58-4.93,2.76-7.12,1.62-3,2.54-5.34,4.26-8.45,3.21-5.83,5.45-10.33,8.71-16.15,2.15-3.83,5.13-9.67,9.7-10a6.5,6.5,0,0,1,3.22.62,6.93,6.93,0,0,1,4.19,6.53c0,3.08-1.78,5.8-1.78,9.28a47,47,0,0,0,1,9.35c1.26,6.2,2.2,12.69,2.88,19a80.49,80.49,0,0,1,.47,8.56,48.89,48.89,0,0,1-.32,7.69,10.08,10.08,0,0,0-.13,1.45c0,1.06.25,2.08,1.42,2s4-1.84,10-7.07c5.24-4.6,9.32-10.18,13.07-16,1.21-1.89,3-5,4.39-7.66s3-3.25,4.36-3.35a6.79,6.79,0,0,1,3.86.8,5.68,5.68,0,0,1,2.74,4.62c0,2.41-4.13,8.28-5.92,11.28a79.38,79.38,0,0,1-12.71,16.19,92.78,92.78,0,0,1-17.9,13.91,72.08,72.08,0,0,1-16.89,7,43.28,43.28,0,0,1-8.39,1.51h0Z" transform="translate(-1226.14 -205)" fill="#1d1d1b"/><path d="M1508,371.65a23.83,23.83,0,0,1-1.75-9.18c0-9.71,5-19.94,9.85-28.33,6.4-11,15.6-21.9,27.06-27.79a26.89,26.89,0,0,1,9.68-2.58c7.31-.55,13.46,4,13.46,11.81,0,5.21-2.65,10.77-5.54,15.07-3.62,5.36-8.67,9.6-13.79,13.44a59.12,59.12,0,0,1-8.54,5.5,79.42,79.42,0,0,1-9.41,3.69c-2.59.91-6.59,2-8.57,3.84a5.88,5.88,0,0,0-1.43,4.34c0,7.71,5.64,9.45,11.12,9,7.81-.61,16.3-4.63,23.13-9.44,5.35-3.76,9.73-8.45,13.9-13A93.63,93.63,0,0,0,1579,331.63c1.47-2.52,2.92-5.74,5.53-7.33a6,6,0,0,1,2.72-.88,5.37,5.37,0,0,1,4.5,1.72,4.28,4.28,0,0,1,1.06,2.92c0,1.71-.92,3.22-1.69,4.83-1.52,3.12-3.81,6.58-5.63,9.54a104,104,0,0,1-11.84,16.12c-9.36,10.19-20.94,18.4-33.57,22.21a47.48,47.48,0,0,1-10,1.92C1520.81,383.39,1511.81,380.87,1508,371.65Zm29.37-34.39a41.89,41.89,0,0,0,7.33-6c1.4-1.4,9.19-9.24,9.19-12.94,0-1.95-1.35-2-2.43-1.89-2.55.19-6,2-8.19,3.8a63.12,63.12,0,0,0-7.31,6.5,66.29,66.29,0,0,0-6.25,8.11c-0.59.89-2.65,3.72-2.65,5.37a1.1,1.1,0,0,0,1.12,1.25C1531.32,341.21,1534.74,338.88,1537.39,337.26Z" transform="translate(-1226.14 -205)" fill="#1d1d1b"/><path d="M1562.43,372.51c0-2,.93-4.06,1.69-5.89,0.9-2.21,1.87-4.42,2.85-6.6,1.83-4.09,3.34-8.05,5.2-12.13,3.76-8.28,6.72-15.11,10-23.58,1.56-4.06,2.87-8.16,4.35-12.22,1.3-3.53,2.33-8,4.81-11a7.16,7.16,0,0,1,4.78-2.55,5.19,5.19,0,0,1,5.79,5.49c0,2.89-2.13,7.19-2.13,9.39a0.86,0.86,0,0,0,.94,1,3,3,0,0,0,1.62-.79c1.61-1.35,3.1-2.9,4.61-4.36,3-2.89,5.66-5.7,9.31-7.71a26,26,0,0,1,10.17-3.12c4.36-.35,8.53.8,10.84,4.6a14.91,14.91,0,0,1,2,7.86c0,5-1.92,10.38-4.1,14.82-3.73,7.6-8.8,15.27-10.35,23.59a9,9,0,0,0-.15,1.68c0,2.66,1.28,4.74,4,4.54,3.4-.26,8.7-4.65,11.46-7.54,6-6.25,10-14.09,14.18-21.55,0.85-1.53,1.79-3.21,3-5.38a6.09,6.09,0,0,1,4.87-3c2.7-.31,5.36,2.35,5.36,5.42a9.57,9.57,0,0,1-1.08,4.18c-1.16,2.64-3.28,6.28-4.53,8.55a124.15,124.15,0,0,1-7.52,11.84c-5.2,7.18-11.33,13.88-18.9,17.64a22.27,22.27,0,0,1-8.26,2.23c-4.76.38-9.38-1-12.42-4.84a16.41,16.41,0,0,1-3.07-10.27,32.32,32.32,0,0,1,2.69-12.4c1.79-4.13,3.87-8.3,5.92-12.32,2-3.83,3.79-7.55,5.36-11.53a9.46,9.46,0,0,0,.82-3.19c0-2.14-1.3-2.67-2.74-2.57a7.43,7.43,0,0,0-2.28.6c-3.68,1.58-6.78,4.48-9.84,7.06a122.47,122.47,0,0,0-16.79,17.86,116.42,116.42,0,0,0-13.06,21c-1.84,3.7-3.53,7.31-5.42,11a42.39,42.39,0,0,1-3.43,6.21,7,7,0,0,1-5,3.08A5,5,0,0,1,1562.43,372.51Z" transform="translate(-1226.14 -205)" fill="#1d1d1b"/><path d="M1668.68,356.55c0-7.22,4.49-15.9,8.52-22.27q2.87-4.5,5.71-9c1.25-2,4.08-5,4.08-7.54,0-3.24-5-4.94-7.36-6.09a5.89,5.89,0,0,0-3-.73c-1.43.11-2.6,1-3.62,3-1.5,2.8-2.65,5.78-4.09,8.61-1.31,2.58-2.54,6.1-4.41,7.25a5.64,5.64,0,0,1-2.28.62c-2.58.21-6.46-2.06-6.46-4.79,0-2.25,1.58-4.93,2.76-7.11,1.62-3,3.34-6.56,4.79-9.64a14.49,14.49,0,0,0,1.56-4.75c0-.17,0-0.33,0-0.5a15.47,15.47,0,0,0-1-4.38,13.09,13.09,0,0,1-.52-3.7,16.48,16.48,0,0,1,6.4-12.8,11.88,11.88,0,0,1,6.07-2.4c4.79-.37,6.44,2.82,6.44,6.35a25.71,25.71,0,0,1-.77,5.41,24.22,24.22,0,0,0-1,4.82c0,3.33,4.13,4.3,6.43,5.64,5.5,3.22,12.79,6.57,12.79,14.25,0,5.94-4.76,11.4-8,16.29-3.59,5.48-8.38,12.44-10.13,18.77a7.18,7.18,0,0,0-.3,2c0,2.08,1.16,3.49,3.46,3.3,5.41-.42,14.06-9.95,16.22-12.37a110,110,0,0,0,12.28-17.83c1.74-3.06,3.66-6.51,5.26-9.47a4.78,4.78,0,0,1,4.41-2.84,5.8,5.8,0,0,1,2.76.49,4.92,4.92,0,0,1,3.27,4.45,8.71,8.71,0,0,1-.62,3.09,97.89,97.89,0,0,1-4.74,9.12c-6.29,11-15.57,23.78-25.94,31.49-4.22,3.15-9.3,5.84-14.39,6.23C1674.85,370.09,1668.68,364.19,1668.68,356.55Z" transform="translate(-1226.14 -205)" fill="#1d1d1b"/><path d="M1730.06,368.7c-6.79.51-13.18-1.72-16.75-8.06a32,32,0,0,1-4-15.19,48.46,48.46,0,0,1,2.26-13.4,64.88,64.88,0,0,1,14.82-25.53,44.35,44.35,0,0,1,15-10.05,21.94,21.94,0,0,0,6.69-4.1,17.11,17.11,0,0,1,9.92-4.06c11.14-.86,15.33,11.57,15.33,21.5a65.29,65.29,0,0,1-1.65,13.83,20.48,20.48,0,0,0-.81,3.75c0,1.18.4,1.86,1.65,1.77,1.9-.14,5.4-2.08,6.66-3,4.39-3.26,8.4-6.7,11.18-11.09,1.19-1.89,1.88-3.19,2.61-4.47,0.57-1,1.89-2.22,4.6-2.43,2.91-.23,5.78,1.73,5.78,4.68,0,2.7-2.08,5.79-3.63,8.08a57.35,57.35,0,0,1-11.7,12.46,67.21,67.21,0,0,1-12.64,7.55,39.32,39.32,0,0,1-7.86,2.74,10.82,10.82,0,0,0-5.57,3.06c-1.74,1.77-3.08,3.9-4.65,5.81a52.66,52.66,0,0,1-5.45,5.72c-6.61,6-14.73,9.91-21.78,10.46h0Zm8.07-14.23a35.28,35.28,0,0,0,8.45-6.79c1.59-1.68,3.78-3.43,3.78-5.1,0-1-1.26-1.84-2.34-2.81a25.47,25.47,0,0,1-7.3-9.49c-1.33-3.23-2-6.5-2.11-13.86,0-1,.12-3-1.39-2.75-1.67.23-3.84,3-4.74,4.31a60.19,60.19,0,0,0-6.33,10.27c-2.26,5.21-4.55,10.79-4.55,16.37a21.49,21.49,0,0,0,.39,4.11c0.65,3.38,2.18,6.5,5.61,7.59a9.51,9.51,0,0,0,3.72.38A17.14,17.14,0,0,0,1738.13,354.47Zm21.94-31.64a60.75,60.75,0,0,0,1.44-8.8c0.08-.92.19-2.42,0.19-4.08,0-4.28-.73-9.67-4.55-9.26-2.56.29-4,3.63-4.77,5.71a38.81,38.81,0,0,0-2.07,11.22,18.49,18.49,0,0,0,1,6.19c0.62,1.74,2.16,6.76,4.73,6.55C1758.15,330.2,1759.4,325.6,1760.07,322.83Z" transform="translate(-1226.14 -205)" fill="#1d1d1b"/><path d="M1795.5,356.26c-6.17-5.57-8-15.18-7.82-23.41,0.13-7.2,1.58-14.4,3.21-21.54a199.83,199.83,0,0,1,7-24c2.92-7.67,5.54-15.48,9.31-22.85,1.87-3.65,3.61-7.21,5.43-10.89,1.95-3.93,5.16-8.84,7.46-12.57,5.06-8.23,14.68-22.67,25.35-23.5a11.71,11.71,0,0,1,8.65,3.07c2.64,2.24,3.66,5.9,3.65,9.53,0,7.53-3.18,16.1-6.16,23.62s-7.18,15.18-11.1,22.38c-7.74,14.2-17.92,26.94-28.37,39.22-2.6,3-5.26,6-8.08,8.78s-4.57,5.54-4.63,9.81c0,6.91,1.32,15.72,9.55,15.08,7.27-.55,14.32-8.2,18.78-13.57a123.31,123.31,0,0,0,12.94-19.49c1.74-3.09,2.72-5.65,4.64-9a5.45,5.45,0,0,1,4.13-2.59c3.41-.27,6.13,2.13,6.13,5.13,0,2.49-1.62,5.14-2.62,7.33a123.15,123.15,0,0,1-5.89,11c-8.31,14.2-21.58,31.67-37.68,32.9C1803.39,361.16,1799.87,360.21,1795.5,356.26Zm12.78-53c1-1.33,2-2.73,3.06-4.09,7-9.31,13.91-18.68,19.64-28.81a190.67,190.67,0,0,0,9.14-18.12c2.43-5.74,5-11,5.07-17.57,0-1.34-.42-2.63-1.7-2.53a3.85,3.85,0,0,0-2,1,38.29,38.29,0,0,0-5.32,6c-3.49,4.61-6.5,9.67-9.62,14.52a167.63,167.63,0,0,0-15.42,31.72c-1.9,5-4.13,9.77-5.57,14.9-0.7,2.37-1.23,3.25-1.19,4.53,0,0.75.32,1.26,1.13,1.14S1807.74,304,1808.28,303.28Z" transform="translate(-1226.14 -205)" fill="#1d1d1b"/><path d="M1839.11,356c-4.29-3-5.42-8.37-5.42-13.6,0-14.08,6.16-29.13,15.28-40.66a67,67,0,0,1,16.93-15.33c6.51-4,11-5.6,18.3-6.16,3.4-.27,6.5.76,9.65,0.51,2.55-.19,4.56-1.9,6.82-2.07a4.77,4.77,0,0,1,5.16,4.94c0,3.62-2.63,8.21-3.85,11.05-2.54,5.84-5.62,11.66-7.26,17.78-1.23,4.58-2.92,10.1-2.92,15.1,0,5.91,1.89,7.72,4.32,7.53,3.12-.24,7.17-3.76,9.34-6.09a76.84,76.84,0,0,0,11.15-16.4c1.3-2.46,2.87-5.66,4.39-8.85s3.93-5.46,7.34-5.72c3.06-.24,4.48,2,4.48,4.76a12.86,12.86,0,0,1-1.17,4.56,180.22,180.22,0,0,1-12.12,22.06,53.56,53.56,0,0,1-9.7,11c-4.15,3.58-8.93,6.71-14.15,7.11-8.59.65-11.62-3.08-15.28-9.58-0.58-1-.86-1.39-1.65-1.33-1.63.12-5.22,5.18-7.1,7.34-4,4.6-10.88,10.68-16.54,12.81a23.19,23.19,0,0,1-6.47,1.47A14.45,14.45,0,0,1,1839.11,356Zm16.72-12.71c4.85-3.48,8.52-8.39,12-13.14,3.95-5.35,7.87-10.74,11.34-16.42,3.17-5.2,8.69-12.11,8.69-18,0-3.1-2.18-3.91-4.88-3.71a26,26,0,0,0-8.39,2.62,44.84,44.84,0,0,0-14.44,11.62c-7.51,9.1-14.64,22.58-14.64,33.5,0,3.3,1.49,6.17,4.59,5.93A11.92,11.92,0,0,0,1855.83,343.25Z" transform="translate(-1226.14 -205)" fill="#1d1d1b"/><path d="M1911.31,334.85c0-17.81,10.33-36.68,23.52-49.36,6.47-6.22,15.35-10.79,24.64-11.51,1.4-.11,2.8,0,4.19-0.12,2.84-.21,3.94-2.39,4.72-4.71a120.45,120.45,0,0,1,5.06-12.88c2-4.28,3.53-8.63,5.51-12.93,1-2.06,1.8-4,2.73-6.11s2.18-4.12,3.23-6.08a99.22,99.22,0,0,1,7.65-11.5,47.06,47.06,0,0,1,9.1-9.66c3.12-2.42,6.79-4.66,10.68-5,4.42-.34,7.3,2.18,8.71,6a16.11,16.11,0,0,1,.91,5.54c0,6.45-3.07,13.5-5.3,19.29-3.38,8.83-7.8,16.51-12.07,25S1995,277.31,1990,285.44a253.44,253.44,0,0,1-16.42,23,15.9,15.9,0,0,0-2.56,7.75c0,5.63,2.39,12.24,7.21,11.88,4-.29,6.36-1.76,9.47-4.29a67.27,67.27,0,0,0,9.42-10.06,84,84,0,0,0,7.69-11c1.08-1.89,2.58-4.82,3.43-6.66s1.27-2.87,3.29-3.92a5.42,5.42,0,0,1,2.06-.59,5.09,5.09,0,0,1,5.76,5.15,8.48,8.48,0,0,1-1.3,4.58c-1.26,2.15-2.68,5.23-3.92,7.21-2.72,4.33-4.75,7.86-7.62,11.71-5.43,7.23-11.83,13.57-19.37,17.67a26.58,26.58,0,0,1-10.56,3.13c-5,.39-10.45-3.17-13.8-8.86-0.73-1.24-2-2.77-3.23-2.67-1.92.15-3.87,3-5.36,4.6s-3.2,3.4-4.88,5c-5.76,5.59-13.31,11.91-21.44,12.54C1917.3,352.41,1911.31,343.8,1911.31,334.85Zm29.05-2.32a107.59,107.59,0,0,0,9.45-10.17c1.61-1.88,3.21-3.75,4.77-5.65s3.11-3.51,3.84-5.7a12.43,12.43,0,0,0,.62-3c0.11-1.71.34-3.67,0.61-5.46,0.36-2.43.75-4.57,0.92-5.35,0.52-2.5,1.27-4.91,1.88-7.38a8.34,8.34,0,0,0,.29-2c0-2.1-1.44-2.46-3.44-2.31a19.09,19.09,0,0,0-5,1,27.5,27.5,0,0,0-6.56,3.72c-7.63,5.48-13.86,14-18.09,22.28-1.67,3.26-6.76,14.49-6.76,21.51,0,4.67,2.45,6,5.3,5.83C1932.74,339.51,1937,335.58,1940.36,332.53Zm36.74-45.59c5.32-8.49,15-24.88,19.43-33.86,2.62-5.33,5.47-11.13,8.06-16.49,2.39-5,5.37-12.49,5.37-15.44,0-1-.44-1.66-1.2-1.59a5.23,5.23,0,0,0-2.7,1.8,51.33,51.33,0,0,0-4.56,6c-2.7,4-5.26,7.85-7.58,12s-4.58,8.21-6.72,12.44a161.46,161.46,0,0,0-6.7,15.13c-1.77,4.76-5.84,14.94-7.21,19.8-0.31,1.11-1.71,5.49-.37,5.38C1974.09,292.07,1975.86,288.89,1977.09,286.94Z" transform="translate(-1226.14 -205)" fill="#1d1d1b"/><path d="M2002.84,343.4c-4.29-3-5.42-8.39-5.42-13.6,0-14.09,6.15-29.14,15.28-40.66a66.75,66.75,0,0,1,16.93-15.33c6.52-4,11-5.61,18.3-6.17,3.41-.26,6.51.76,9.66,0.52,2.54-.2,4.56-1.9,6.82-2.08a4.78,4.78,0,0,1,5.16,4.94c0,3.62-2.63,8.22-3.87,11.05-2.53,5.85-5.62,11.66-7.26,17.78-1.23,4.59-2.92,10.1-2.92,15.1,0,5.91,1.89,7.73,4.33,7.54,3.12-.25,7.17-3.76,9.34-6.1A76.64,76.64,0,0,0,2080.34,300c1.3-2.45,2.87-5.64,4.39-8.83s3.93-5.47,7.34-5.73c3.06-.23,4.49,2,4.49,4.77a13,13,0,0,1-1.17,4.57,183,183,0,0,1-12.12,22.06,54,54,0,0,1-9.7,11c-4.14,3.57-8.94,6.72-14.15,7.12-8.59.67-11.63-3.09-15.27-9.59-0.58-1-.87-1.39-1.66-1.33-1.63.13-5.22,5.2-7.1,7.35-4,4.6-10.88,10.68-16.53,12.81a23.74,23.74,0,0,1-6.48,1.49A14.6,14.6,0,0,1,2002.84,343.4Zm16.73-12.71c4.85-3.48,8.53-8.39,12-13.14,4-5.35,7.87-10.74,11.33-16.42,3.18-5.21,8.7-12.12,8.7-18,0-3.1-2.18-3.92-4.88-3.71a25.81,25.81,0,0,0-8.4,2.62,44.69,44.69,0,0,0-14.43,11.62c-7.51,9.09-14.64,22.58-14.64,33.5,0,3.3,1.48,6.17,4.59,5.93A12.07,12.07,0,0,0,2019.56,330.69Z" transform="translate(-1226.14 -205)" fill="#1d1d1b"/><path d="M2165.13,275.23c0.78,0.77-1.33,4.53-2,5.85-2.6,5.4-8.06,14.53-9.5,16.94a79.23,79.23,0,0,1-12.71,16.19,92.86,92.86,0,0,1-17.9,13.92,72.61,72.61,0,0,1-16.89,7,43.55,43.55,0,0,1-8.39,1.5h0A34,34,0,0,1,2088,336c-2.52-.56-5.39-1.57-6.73-3.9a5.41,5.41,0,0,1-.73-2.74,5.69,5.69,0,0,1,5.61-5.91,13.74,13.74,0,0,1,5.16.86,13.06,13.06,0,0,0,4.94.78,8.55,8.55,0,0,0,3.83-1.27c5.08-3,7.8-9.39,7.8-15,0-6.48-1.08-12.19-2-18.59-0.23-1.62-.4-3.23-0.63-4.84-0.16-1.13-.23-3.09-1.17-3.87a1.21,1.21,0,0,0-.9-0.32c-0.94.07-1.89,1.33-2.86,3.13-0.8,1.48-1.61,3.3-2.46,5.14-1.31,2.58-2.55,6.1-4.41,7.25a5.68,5.68,0,0,1-2.29.64c-2.57.19-6.45-2.08-6.45-4.8,0-2.25,1.58-4.93,2.76-7.11,1.62-3,2.53-5.33,4.26-8.46,3.21-5.82,5.45-10.33,8.71-16.14,2.15-3.84,5.13-9.68,9.7-10a6.58,6.58,0,0,1,3.22.63,6.93,6.93,0,0,1,4.19,6.53c0,3.08-1.77,5.8-1.77,9.28a46.86,46.86,0,0,0,1,9.35c1.27,6.2,2.2,12.68,2.88,19a81.54,81.54,0,0,1,.47,8.57,48.85,48.85,0,0,1-.32,7.69,9.57,9.57,0,0,0-.13,1.46c0,1.06.26,2.09,1.42,2s4.24-.3,10.21-5.53c5.23-4.59,9.51-8.73,13.24-14.56,1.21-1.89,7.74-14.29,9.71-16.56C2155,277.94,2163.33,273.42,2165.13,275.23Z" transform="translate(-1226.14 -205)" fill="#1d1d1b"/></svg>