<svg xmlns="http://www.w3.org/2000/svg" viewBox="0 0 44.84 44.84"><title>instagram</title><path d="M1758.92,8915.1c6,0,6.69,0,9.06.13a12.41,12.41,0,0,1,4.16.77,7.42,7.42,0,0,1,4.25,4.25,12.41,12.41,0,0,1,.77,4.16c0.11,2.36.13,3.07,0.13,9.06s0,6.7-.13,9.06a12.41,12.41,0,0,1-.77,4.16,7.42,7.42,0,0,1-4.25,4.25,12.4,12.4,0,0,1-4.16.77c-2.36.11-3.07,0.13-9.06,0.13s-6.7,0-9.06-.13a12.4,12.4,0,0,1-4.16-.77,7.42,7.42,0,0,1-4.25-4.25,12.41,12.41,0,0,1-.77-4.16c-0.11-2.36-.13-3.07-0.13-9.06s0-6.69.13-9.06a12.41,12.41,0,0,1,.77-4.16,7.42,7.42,0,0,1,4.25-4.25,12.41,12.41,0,0,1,4.16-.77c2.36-.11,3.07-0.13,9.06-0.13m0-4c-6.09,0-6.85,0-9.24.13a16.46,16.46,0,0,0-5.44,1,11.46,11.46,0,0,0-6.56,6.56,16.45,16.45,0,0,0-1,5.44c-0.11,2.39-.13,3.15-0.13,9.24s0,6.85.13,9.24a16.45,16.45,0,0,0,1,5.44,11.46,11.46,0,0,0,6.56,6.56,16.46,16.46,0,0,0,5.44,1c2.39,0.11,3.15.13,9.24,0.13s6.85,0,9.24-.13a16.46,16.46,0,0,0,5.44-1,11.46,11.46,0,0,0,6.56-6.56,16.45,16.45,0,0,0,1-5.44c0.11-2.39.13-3.15,0.13-9.24s0-6.85-.13-9.24a16.45,16.45,0,0,0-1-5.44,11.46,11.46,0,0,0-6.56-6.56,16.46,16.46,0,0,0-5.44-1c-2.39-.11-3.15-0.13-9.24-0.13" transform="translate(-1736.5 -8911.06)" fill="#1d1d1b"/><path d="M1758.92,8922a11.51,11.51,0,1,0,11.51,11.51,11.51,11.51,0,0,0-11.51-11.51m0,19a7.47,7.47,0,1,1,7.47-7.47,7.47,7.47,0,0,1-7.47,7.47" transform="translate(-1736.5 -8911.06)" fill="#1d1d1b"/><path d="M1773.57,8921.51a2.69,2.69,0,1,1-2.69-2.69,2.69,2.69,0,0,1,2.69,2.69" transform="translate(-1736.5 -8911.06)" fill="#1d1d1b"/></svg>