<svg xmlns="http://www.w3.org/2000/svg" viewBox="0 0 29.55 38.17"><title>pinterest</title><path d="M8699.77,8436.1a0.76,0.76,0,0,0,1.1-.55c0.1-.38.34-1.36,0.45-1.76a1.06,1.06,0,0,0-.32-1.22,6.33,6.33,0,0,1-1.45-4.3,10.39,10.39,0,0,1,10.8-10.5c5.89,0,9.12,3.6,9.12,8.4,0,6.32-2.8,11.66-7,11.66a3.39,3.39,0,0,1-3.46-4.22c0.66-2.78,1.94-5.78,1.94-7.78,0-1.79-1-3.29-3-3.29-2.35,0-4.23,2.43-4.23,5.68a8.43,8.43,0,0,0,.7,3.47l-2.82,11.95a24.57,24.57,0,0,0-.07,8.33,0.29,0.29,0,0,0,.52.13,23.38,23.38,0,0,0,4-7.18c0.27-1,1.54-6,1.54-6a6.28,6.28,0,0,0,5.36,2.73c7.05,0,11.83-6.43,11.83-15,0-6.5-5.51-12.56-13.88-12.56-10.42,0-15.67,7.47-15.67,13.7C8695.28,8431.49,8696.71,8434.85,8699.77,8436.1Z" transform="translate(-8695.28 -8414.02)" fill="#1d1d1b"/></svg>