<svg xmlns="http://www.w3.org/2000/svg" viewBox="0 0 22.41 36.45"><title>tumblr</title><path d="M8602.35,8441.3a10.78,10.78,0,0,0,.52,3.81,6.53,6.53,0,0,0,1.88,2.48,9.46,9.46,0,0,0,3.27,1.8,14.14,14.14,0,0,0,4.42.63,18.11,18.11,0,0,0,4.09-.44,21.81,21.81,0,0,0,4.23-1.54v-5.73a10,10,0,0,1-5.51,1.8,5.26,5.26,0,0,1-2.77-.73,2.77,2.77,0,0,1-1.25-1.44,14.89,14.89,0,0,1-.34-4.07v-9.35h8.66v-5.72h-8.66v-9.23h-5.16a14.22,14.22,0,0,1-1.27,4.64,10,10,0,0,1-2.45,3.12,10.69,10.69,0,0,1-3.67,2v5.19h4v12.78Z" transform="translate(-8598.36 -8413.57)" fill="#1d1d1b"/></svg>