<svg xmlns="http://www.w3.org/2000/svg" viewBox="0 0 29.73 24.16"><title>twitter</title><path d="M2583,52.13a17.27,17.27,0,0,0,9.35,2.74c11.33,0,17.72-9.57,17.34-18.15a12.36,12.36,0,0,0,3-3.16,12.19,12.19,0,0,1-3.5,1,6.11,6.11,0,0,0,2.68-3.37,12.23,12.23,0,0,1-3.87,1.48,6.1,6.1,0,0,0-10.39,5.56,17.31,17.31,0,0,1-12.57-6.37A6.11,6.11,0,0,0,2587,40a6.08,6.08,0,0,1-2.76-.76,6.11,6.11,0,0,0,4.89,6.06,6.1,6.1,0,0,1-2.75.1,6.1,6.1,0,0,0,5.7,4.24A12.26,12.26,0,0,1,2583,52.13Z" transform="translate(-2583.02 -30.7)" fill="#f6f6f6"/></svg>