<svg xmlns="http://www.w3.org/2000/svg" viewBox="0 0 344.05 68.87"><title>logo2</title><path d="M94.72 60.19c-16.42 13.35-33.67-.07-48.88-6.55a38.6 38.6 0 0 0 2.39-3 45.09 45.09 0 0 0 5.43-10.23 36.69 36.69 0 0 0 2.27-10.14 26 26 0 0 0-1.65-10.61 15.79 15.79 0 0 0-4.78-6.75 20.11 20.11 0 0 0-6.32-3.47 26.68 26.68 0 0 0-8.5-1.35 43.21 43.21 0 0 0-24.79 7.17 25.07 25.07 0 0 0-7.86 8.57 15.12 15.12 0 0 0-2 6.25 10.57 10.57 0 0 0 2.15 7.51 7.83 7.83 0 0 0 5.51 2.8c2.05 0 3.23-1.13 3.32-2.41a2.3 2.3 0 0 0 0-.62c-.29-1.47-1.63-1.93-2.72-2.31-2.21-.77-3.17-2.58-3-4.92a12.18 12.18 0 0 1 3.43-7 30.24 30.24 0 0 1 14.35-8.34 42 42 0 0 1 10.81-1.55 22.06 22.06 0 0 1 6.08.83 16.15 16.15 0 0 1 6.32 3.2c1.41 1.2 2.81 2.87 3.79 6.7a20.41 20.41 0 0 1 .53 6.47 29.18 29.18 0 0 1-2.85 10 42.7 42.7 0 0 1-7.29 11.19 78.5 78.5 0 0 0-19-4.19c.58-1.3 1.2-2.59 1.88-3.89 1.67-3.22 3-5.52 4.79-8.6 2.88-4.86 4.81-7.8 6.91-10.06.42-.46 2.54-2.58 3.11-3.23a4.72 4.72 0 0 0 1.23-2.51 2.15 2.15 0 0 0-2.27-2.3c-1.79 0-3.18 1.55-5.71 4.47a62.94 62.94 0 0 0-6.4 9c-1.55 2.6-3.58 6-5.51 9.54-1.4 2.55-2.64 5.13-3.68 7.51h-.67a21.08 21.08 0 0 0-9.22 3c-2.21 1.38-4.57 3.49-5 6.13-.51 3 1.15 5.81 3.34 7.59a15.26 15.26 0 0 0 6.66 2.9 23.81 23.81 0 0 0 5.44.45 41 41 0 0 0 9.91-1.16 37.88 37.88 0 0 0 9.29-4 44.12 44.12 0 0 0 7.7-5.85c3.36 1.38 6.67 2.87 10 4.29 14.75 6.36 32.85 13.89 48.08 1.5 1.74-1.52-4.77-3.53-6.62-2.03zm-71.43 1.33a31.16 31.16 0 0 1-6.39.64c-2.75 0-5.86-.23-8.2-1.57-3.67-2.09-1.54-6.55 1.6-8.44a12.77 12.77 0 0 1 4.09-1.58l-.21.54c-.79 2-2 4.69-2.12 6.43a2.23 2.23 0 0 0 2.32 2.67c1.13 0 2-.74 2.72-2.19.45-1 .81-2 1.18-2.95.18-.5.37-1 .56-1.5.41-1 .84-2.1 1.28-3.18 2.46.25 4.92.79 7.26 1.18a62.72 62.72 0 0 1 10.24 2.72 33 33 0 0 1-14.34 7.23z" fill="#f6f6f6"/><path d="M55.4 48a8.76 8.76 0 0 1-.4-3.4c.25-3.53 2.32-7.14 4.31-10.07 2.62-3.85 6.25-7.58 10.58-9.43a9.84 9.84 0 0 1 3.6-.69 4.27 4.27 0 0 1 4.6 4.65 10.56 10.56 0 0 1-2.41 5.35 21.28 21.28 0 0 1-5.38 4.54 21.76 21.76 0 0 1-3.25 1.79 29.1 29.1 0 0 1-3.52 1.09 9.73 9.73 0 0 0-3.22 1.18 2.15 2.15 0 0 0-.63 1.55c-.2 2.81 1.81 3.58 3.82 3.57a18.08 18.08 0 0 0 8.67-2.84 32.63 32.63 0 0 0 5.4-4.39 34.08 34.08 0 0 0 4.73-5.67 7.07 7.07 0 0 1 2.2-2.53 2.2 2.2 0 0 1 1-.25 2 2 0 0 1 1.6.74 1.57 1.57 0 0 1 .31 1.09 4.14 4.14 0 0 1-.76 1.72c-.63 1.09-1.56 2.3-2.3 3.33a37.77 37.77 0 0 1-4.73 5.57 28.23 28.23 0 0 1-12.81 7.23 17.45 17.45 0 0 1-3.71.44c-3.34.06-6.55-1.09-7.7-4.57zm11.59-11.78a15.38 15.38 0 0 0 2.82-2c.55-.48 3.59-3.13 3.68-4.48a.66.66 0 0 0-.84-.74 6.41 6.41 0 0 0-3.09 1.17 23.06 23.06 0 0 0-2.83 2.18 24.44 24.44 0 0 0-2.48 2.79 5.13 5.13 0 0 0-1.1 1.89.4.4 0 0 0 .37.48A8.52 8.52 0 0 0 67 36.24z" fill="#f6f6f6"/><path d="M86.41 51.57a12.36 12.36 0 0 1-3.55-.47 3.63 3.63 0 0 1-2.36-1.59 2 2 0 0 1-.19-1 2.07 2.07 0 0 1 2.2-2 4.89 4.89 0 0 1 1.86.45 4.64 4.64 0 0 0 1.78.41 3.13 3.13 0 0 0 1.43-.36 6.51 6.51 0 0 0 3.23-5.25 48.16 48.16 0 0 0-.23-6.83c0-.59-.06-1.18-.11-1.77a2.4 2.4 0 0 0-.33-1.44.45.45 0 0 0-.32-.14 1.92 1.92 0 0 0-1.12 1.07c-.33.51-.67 1.16-1 1.8-.54.91-1.08 2.16-1.79 2.53a2 2 0 0 1-.85.17c-.94 0-2.3-.92-2.23-1.91a6.4 6.4 0 0 1 1.19-2.52c.67-1.06 1.06-1.88 1.77-3 1.32-2 2.25-3.62 3.59-5.66.88-1.34 2.12-3.39 3.79-3.4a2.37 2.37 0 0 1 1.16.31 2.53 2.53 0 0 1 1.36 2.49c-.08 1.12-.8 2.07-.89 3.34a17.17 17.17 0 0 0 .14 3.44c.3 2.29.48 4.68.56 7a29.41 29.41 0 0 1 0 3.13 17.86 17.86 0 0 1-.31 2.79 3.68 3.68 0 0 0-.09.53c0 .38 0 .76.47.76s1.52-.57 3.83-2.32a27 27 0 0 0 5.18-5.5c.49-.66 1.22-1.75 1.8-2.68a1.85 1.85 0 0 1 1.67-1.11 2.48 2.48 0 0 1 1.39.39 2.07 2.07 0 0 1 .88 1.75c-.06.88-1.72 2.91-2.45 4a29 29 0 0 1-5 5.57 33.9 33.9 0 0 1-6.88 4.61 26.34 26.34 0 0 1-6.34 2.12 15.81 15.81 0 0 1-3.09.33z" fill="#f6f6f6"/><path d="M102.03 47.74a8.71 8.71 0 0 1-.4-3.39c.25-3.54 2.33-7.14 4.32-10.07 2.62-3.85 6.25-7.58 10.58-9.43a9.82 9.82 0 0 1 3.6-.69 4.28 4.28 0 0 1 4.6 4.65 10.59 10.59 0 0 1-2.41 5.35 21.25 21.25 0 0 1-5.37 4.54 21.6 21.6 0 0 1-3.25 1.79 29 29 0 0 1-3.52 1.1 9.6 9.6 0 0 0-3.22 1.18 2.15 2.15 0 0 0-.63 1.55c-.2 2.81 1.81 3.59 3.82 3.57a18.09 18.09 0 0 0 8.67-2.85 32.15 32.15 0 0 0 5.4-4.38 34.21 34.21 0 0 0 4.74-5.68 7.1 7.1 0 0 1 2.2-2.53 2.2 2.2 0 0 1 1-.25 2 2 0 0 1 1.59.74 1.56 1.56 0 0 1 .31 1.09 4.21 4.21 0 0 1-.74 1.72c-.63 1.1-1.56 2.3-2.3 3.33a38 38 0 0 1-4.73 5.57 28.19 28.19 0 0 1-12.81 7.23 17.35 17.35 0 0 1-3.71.44c-3.38.03-6.59-1.12-7.74-4.58zM113.65 36a15.31 15.31 0 0 0 2.82-2c.55-.48 3.59-3.13 3.68-4.48a.66.66 0 0 0-.84-.75 6.34 6.34 0 0 0-3.08 1.17 23.06 23.06 0 0 0-2.83 2.18 24.22 24.22 0 0 0-2.49 2.79 5.09 5.09 0 0 0-1.1 1.89.4.4 0 0 0 .38.49 8.69 8.69 0 0 0 3.46-1.29z" fill="#f6f6f6"/><path d="M121.84 49.45a6 6 0 0 1 .77-2.1c.39-.78.79-1.56 1.21-2.33.77-1.44 1.43-2.85 2.21-4.29 1.58-2.92 2.84-5.33 4.24-8.34.67-1.44 1.25-2.9 1.9-4.34a13.53 13.53 0 0 1 2-3.88 2.62 2.62 0 0 1 1.81-.81 1.9 1.9 0 0 1 2 2.15c-.07 1.05-1 2.56-1 3.37a.31.31 0 0 0 .32.38 1.08 1.08 0 0 0 .61-.25c.62-.45 1.21-1 1.79-1.47a16.23 16.23 0 0 1 3.59-2.57 9.51 9.51 0 0 1 3.79-.87 4 4 0 0 1 3.83 2 5.45 5.45 0 0 1 .54 2.92 12.89 12.89 0 0 1-1.88 5.3c-1.55 2.67-3.6 5.34-4.38 8.33a3.31 3.31 0 0 0-.1.61 1.4 1.4 0 0 0 1.34 1.76c1.25 0 3.29-1.47 4.37-2.45a37.38 37.38 0 0 0 5.72-7.49l1.24-1.88a2.23 2.23 0 0 1 1.85-1 1.94 1.94 0 0 1 1.81 2.11 3.5 3.5 0 0 1-.5 1.5c-.49.93-1.36 2.2-1.87 3a45.36 45.36 0 0 1-3 4.12 20 20 0 0 1-7.34 5.94 8.14 8.14 0 0 1-3.07.6 5 5 0 0 1-4.4-2.09 6 6 0 0 1-.86-3.82 11.81 11.81 0 0 1 1.3-4.45c.76-1.46 1.63-2.93 2.47-4.34s1.58-2.66 2.25-4.07a3.45 3.45 0 0 0 .38-1.14.83.83 0 0 0-.93-1 2.72 2.72 0 0 0-.85.16 15.24 15.24 0 0 0-3.77 2.32 44.75 44.75 0 0 0-6.58 6.08 42.53 42.53 0 0 0-5.3 7.33c-.77 1.3-1.48 2.57-2.26 3.86a15.49 15.49 0 0 1-1.41 2.18 2.54 2.54 0 0 1-1.92 1 1.84 1.84 0 0 1-1.92-2.04z" fill="#f6f6f6"/><path d="M160.98 46.37c.19-2.63 2-5.68 3.68-7.9l2.31-3.14c.51-.71 1.62-1.72 1.68-2.64.08-1.18-1.69-1.93-2.53-2.41a2.15 2.15 0 0 0-1.07-.34 1.69 1.69 0 0 0-1.4 1c-.62 1-1.12 2-1.71 3s-1.08 2.16-1.79 2.53a2.06 2.06 0 0 1-.85.17c-.94 0-2.3-.92-2.23-1.91a6.38 6.38 0 0 1 1.19-2.52c.67-1.06 1.39-2.3 2-3.39a5.29 5.29 0 0 0 .69-1.69v-.18a5.65 5.65 0 0 0-.26-1.62 4.78 4.78 0 0 1-.1-1.36 6 6 0 0 1 2.66-4.5 4.34 4.34 0 0 1 2.27-.72c1.75 0 2.28 1.19 2.18 2.48a9.39 9.39 0 0 1-.42 2 8.85 8.85 0 0 0-.5 1.73c-.09 1.21 1.39 1.67 2.2 2.22 1.92 1.32 4.49 2.73 4.29 5.52-.15 2.16-2 4-3.32 5.73-1.45 1.91-3.37 4.32-4.17 6.58a2.62 2.62 0 0 0-.16.71 1.08 1.08 0 0 0 1.18 1.29c2 0 5.38-3.26 6.23-4.09a40.2 40.2 0 0 0 4.93-6.18c.71-1.07 1.5-2.28 2.16-3.32a1.75 1.75 0 0 1 1.68-.92 2.12 2.12 0 0 1 1 .25 1.8 1.8 0 0 1 1.08 1.71 3.18 3.18 0 0 1-.3 1.11 35.77 35.77 0 0 1-2 3.2c-2.57 3.85-6.29 8.27-10.26 10.81a10.61 10.61 0 0 1-5.4 1.9 4.72 4.72 0 0 1-4.94-5.11z" fill="#f6f6f6"/><path d="M183.03 52.38a6.08 6.08 0 0 1-5.9-3.37 11.69 11.69 0 0 1-1.08-5.64 17.71 17.71 0 0 1 1.17-4.82 23.7 23.7 0 0 1 6.06-8.92 16.2 16.2 0 0 1 5.73-3.28 8 8 0 0 0 2.54-1.32 6.25 6.25 0 0 1 3.72-1.22c4.08 0 5.29 4.61 5 8.23a23.85 23.85 0 0 1-1 5 7.48 7.48 0 0 0-.39 1.35.52.52 0 0 0 .56.69 6.65 6.65 0 0 0 2.51-.93 15.71 15.71 0 0 0 4.36-3.75c.48-.66.77-1.11 1.07-1.56a2 2 0 0 1 1.74-.77 1.86 1.86 0 0 1 2 1.85 6.12 6.12 0 0 1-1.53 2.85 21 21 0 0 1-4.59 4.24 24.55 24.55 0 0 1-4.8 2.43 14.37 14.37 0 0 1-2.94.79 4 4 0 0 0-2.11 1c-.68.6-1.22 1.34-1.84 2a19.24 19.24 0 0 1-2.13 1.94 14.31 14.31 0 0 1-8.21 3.25zm3.31-5a12.89 12.89 0 0 0 3.25-2.26c.62-.57 1.47-1.15 1.51-1.76a2 2 0 0 0-.78-1.08 9.3 9.3 0 0 1-2.42-3.65 12.64 12.64 0 0 1-.41-5.11c0-.36.12-1.07-.44-1a4 4 0 0 0-1.84 1.45 22 22 0 0 0-2.57 3.58 15.58 15.58 0 0 0-2.08 5.85 7.85 7.85 0 0 0 0 1.51 3.26 3.26 0 0 0 1.85 2.91 3.47 3.47 0 0 0 1.34.23 6.26 6.26 0 0 0 2.59-.65zm8.81-11a22.2 22.2 0 0 0 .75-3.17c.05-.33.13-.88.17-1.48.11-1.56 0-3.54-1.42-3.49-.94 0-1.55 1.22-1.89 2a14.18 14.18 0 0 0-1 4 6.76 6.76 0 0 0 .21 2.28c.18.65.61 2.52 1.55 2.51.74.04 1.31-1.6 1.63-2.59z" fill="#f6f6f6"/><path d="M207.2 49.53c-2.11-2.19-2.51-5.74-2.25-8.73a38.54 38.54 0 0 1 1.7-7.8 73 73 0 0 1 3.18-8.56 82 82 0 0 1 4-8.09c.77-1.28 1.5-2.53 2.26-3.83s2.11-3.09 3-4.39c2.05-2.87 5.93-7.89 9.84-7.91A4.28 4.28 0 0 1 232 1.56a4.46 4.46 0 0 1 1.09 3.57c-.2 2.74-1.57 5.78-2.85 8.45a76.26 76.26 0 0 1-4.62 7.87A86.13 86.13 0 0 1 214.33 35c-1 1-2.07 2-3.17 3a4.78 4.78 0 0 0-1.94 3.46c-.18 2.52.08 5.76 3.09 5.74 2.66 0 5.43-2.62 7.2-4.46a45.05 45.05 0 0 0 5.22-6.77c.71-1.08 1.14-2 1.92-3.16a2 2 0 0 1 3.67 1.19 7.12 7.12 0 0 1-1.15 2.6 45 45 0 0 1-2.43 3.85c-3.39 5-8.68 11-14.58 11a5.85 5.85 0 0 1-4.96-1.92zm6-19c.42-.46.81-.94 1.22-1.41a97.74 97.74 0 0 0 7.9-10 69.66 69.66 0 0 0 3.8-6.37c1-2 2.09-3.89 2.3-6.27 0-.49-.08-1-.55-1a1.41 1.41 0 0 0-.77.32 14 14 0 0 0-2.09 2c-1.39 1.59-2.62 3.36-3.88 5a61.25 61.25 0 0 0-6.44 11.16c-.82 1.79-1.76 3.46-2.41 5.29a5.82 5.82 0 0 0-.55 1.62c0 .27.08.47.38.45a2.76 2.76 0 0 0 1.11-.77z" fill="#f6f6f6"/><path d="M223.1 50.55c-1.49-1.21-1.76-3.19-1.62-5.09a25 25 0 0 1 6.62-14.42 24.49 24.49 0 0 1 6.56-5.15 13.05 13.05 0 0 1 6.83-1.77c1.25 0 2.35.44 3.5.43.93 0 1.71-.58 2.54-.58a1.74 1.74 0 0 1 1.75 1.93c-.09 1.32-1.17 2.93-1.69 3.93a48.19 48.19 0 0 0-3.11 6.29 22.54 22.54 0 0 0-1.45 5.43c-.15 2.16.49 2.86 1.38 2.86 1.14 0 2.71-1.19 3.56-2a28.07 28.07 0 0 0 4.49-5.69c.54-.86 1.19-2 1.83-3.11a3.28 3.28 0 0 1 2.82-1.9 1.51 1.51 0 0 1 1.51 1.85 4.7 4.7 0 0 1-.54 1.63 65.85 65.85 0 0 1-5 7.73 19.57 19.57 0 0 1-3.82 3.76 9.43 9.43 0 0 1-5.34 2.23c-3.15 0-4.16-1.42-5.32-3.89-.18-.39-.28-.53-.57-.53-.6 0-2 1.75-2.78 2.49a18.16 18.16 0 0 1-6.36 4.24 8.47 8.47 0 0 1-2.4.37 5.28 5.28 0 0 1-3.39-1.04zm6.42-4.2a21.11 21.11 0 0 0 4.72-4.48c1.58-1.85 3.15-3.71 4.55-5.69 1.29-1.81 3.48-4.19 3.63-6.33.08-1.13-.69-1.48-1.68-1.48a9.49 9.49 0 0 0-3.13.74 16.38 16.38 0 0 0-5.56 3.86c-3 3.12-5.92 7.85-6.2 11.83-.08 1.2.38 2.29 1.52 2.28a4.35 4.35 0 0 0 2.16-.74z" fill="#f6f6f6"/><path d="M249.96 44.71c.46-6.49 4.71-13.1 9.84-17.39a15 15 0 0 1 9.28-3.56c.51 0 1 .07 1.53.06a2 2 0 0 0 1.84-1.6 44 44 0 0 1 2.18-4.56c.85-1.51 1.51-3.06 2.34-4.57.4-.73.76-1.43 1.15-2.16s.9-1.44 1.33-2.13a36.25 36.25 0 0 1 3.08-4 17.19 17.19 0 0 1 3.57-3.29 7.67 7.67 0 0 1 4-1.53 3 3 0 0 1 3 2.42 5.89 5.89 0 0 1 .19 2c-.17 2.35-1.47 4.84-2.43 6.89a98.72 98.72 0 0 1-5 8.8c-1.78 3-3.91 5.75-6 8.58a92.6 92.6 0 0 1-6.58 8 5.81 5.81 0 0 0-1.13 2.76c-.15 2.05.56 4.52 2.32 4.51a5.59 5.59 0 0 0 3.56-1.32 24.58 24.58 0 0 0 3.69-3.42 30.67 30.67 0 0 0 3.09-3.82c.44-.66 1.06-1.69 1.42-2.34a2.31 2.31 0 0 1 1.3-1.34 2 2 0 0 1 .77-.16 1.86 1.86 0 0 1 2 2 3.1 3.1 0 0 1-.59 1.64c-.51.75-1.11 1.84-1.61 2.53-1.1 1.51-1.93 2.74-3.08 4.07a22.58 22.58 0 0 1-7.52 5.94 9.71 9.71 0 0 1-3.93.87c-1.84 0-3.73-1.42-4.8-3.59a1.64 1.64 0 0 0-1.12-1c-.7 0-1.49 1-2.07 1.54s-1.25 1.15-1.91 1.7c-2.24 1.89-5.16 4-8.14 4-3.88.03-5.8-3.24-5.57-6.53zm10.65-.1a39.31 39.31 0 0 0 3.7-3.46c.63-.64 1.27-1.28 1.88-1.94a7 7 0 0 0 1.55-2 4.54 4.54 0 0 0 .3-1.09c.09-.62.22-1.33.36-2 .19-.88.39-1.65.47-1.93.26-.9.59-1.76.87-2.64a3 3 0 0 0 .16-.71c.05-.76-.46-.93-1.2-.93a7 7 0 0 0-1.85.24 10 10 0 0 0-2.49 1.19 23.19 23.19 0 0 0-7.17 7.66c-.69 1.14-2.84 5.11-3 7.67-.12 1.7.74 2.27 1.78 2.26 1.68.07 3.35-1.29 4.68-2.31zm14.56-15.67c2.16-3 6.11-8.68 8-11.84 1.09-1.88 2.28-3.92 3.36-5.8s2.28-4.41 2.35-5.49c0-.36-.12-.62-.4-.61a1.91 1.91 0 0 0-1 .59 18.75 18.75 0 0 0-1.82 2.07c-1.09 1.39-2.12 2.72-3.07 4.19s-1.88 2.87-2.77 4.36a59 59 0 0 0-2.83 5.34c-.77 1.69-2.51 5.3-3.14 7-.14.4-.76 2-.27 2s1.07-1.13 1.59-1.8z" fill="#f6f6f6"/><path d="M283.1 50.18c-1.49-1.21-1.76-3.2-1.62-5.09a25 25 0 0 1 6.62-14.43 24.39 24.39 0 0 1 6.56-5.15 13 13 0 0 1 6.83-1.78c1.25 0 2.35.44 3.51.44.93 0 1.71-.57 2.54-.58a1.74 1.74 0 0 1 1.75 1.93c-.09 1.32-1.17 2.93-1.69 3.93a48.24 48.24 0 0 0-3.1 6.29 22.57 22.57 0 0 0-1.45 5.43c-.15 2.15.49 2.87 1.38 2.86 1.15 0 2.71-1.19 3.56-2a28 28 0 0 0 4.49-5.69c.54-.86 1.19-2 1.83-3.11a3.29 3.29 0 0 1 2.82-1.9 1.52 1.52 0 0 1 1.51 1.85 4.76 4.76 0 0 1-.54 1.63 66.87 66.87 0 0 1-5 7.73 19.71 19.71 0 0 1-3.82 3.76 9.44 9.44 0 0 1-5.34 2.23c-3.15 0-4.16-1.43-5.32-3.89-.19-.39-.28-.53-.57-.53-.6 0-2 1.76-2.78 2.5a18.18 18.18 0 0 1-6.35 4.24 8.67 8.67 0 0 1-2.4.37 5.34 5.34 0 0 1-3.42-1.04zm6.42-4.2a21.06 21.06 0 0 0 4.72-4.48c1.58-1.85 3.15-3.71 4.55-5.69 1.29-1.82 3.48-4.19 3.63-6.33.08-1.13-.69-1.48-1.68-1.48a9.43 9.43 0 0 0-3.13.74 16.33 16.33 0 0 0-5.56 3.86c-3 3.12-5.92 7.85-6.2 11.83-.08 1.2.38 2.29 1.52 2.28a4.41 4.41 0 0 0 2.15-.71z" fill="#f6f6f6"/><path d="M344 29.52c.26.3-.6 1.62-.87 2.08-1.09 1.9-3.31 5.09-3.9 5.93a29 29 0 0 1-5 5.57 33.93 33.93 0 0 1-6.88 4.61 26.53 26.53 0 0 1-6.34 2.12 15.91 15.91 0 0 1-3.1.33 12.43 12.43 0 0 1-3.55-.47 3.62 3.62 0 0 1-2.35-1.6 2 2 0 0 1-.19-1 2.08 2.08 0 0 1 2.2-2 5 5 0 0 1 1.86.44 4.77 4.77 0 0 0 1.78.41 3.12 3.12 0 0 0 1.43-.37 6.5 6.5 0 0 0 3.23-5.25 48.44 48.44 0 0 0-.24-6.83c0-.6-.06-1.19-.11-1.78a2.39 2.39 0 0 0-.33-1.44.44.44 0 0 0-.32-.14 1.9 1.9 0 0 0-1.12 1.07c-.33.52-.67 1.16-1 1.81-.54.91-1.09 2.16-1.79 2.53a2.08 2.08 0 0 1-.85.17c-.94 0-2.3-.92-2.23-1.92a6.4 6.4 0 0 1 1.19-2.52c.67-1.06 1.06-1.88 1.77-3 1.32-2 2.25-3.62 3.59-5.66.88-1.34 2.12-3.39 3.79-3.41a2.41 2.41 0 0 1 1.16.31 2.53 2.53 0 0 1 1.36 2.49c-.08 1.12-.8 2.07-.88 3.34a17.12 17.12 0 0 0 .14 3.43c.3 2.29.48 4.68.56 7a29.79 29.79 0 0 1 0 3.13 17.85 17.85 0 0 1-.31 2.79 3.5 3.5 0 0 0-.08.53c0 .39 0 .77.46.76s1.55 0 3.86-1.75a24.49 24.49 0 0 0 5.2-5c.49-.66 3.19-5 4-5.79.11-.19 3.25-1.63 3.86-.92z" fill="#f6f6f6"/></svg>